<svg width="368" height="72" viewBox="0 0 368 72" fill="none" xmlns="http://www.w3.org/2000/svg">
<g filter="url(#filter0_d_4_78)">
<rect x="4" y="4" width="359.526" height="62" rx="15" fill="#3C7247"/>
<rect x="2" y="2" width="363.526" height="66" rx="17" stroke="#2B5754" stroke-width="4"/>
</g>
<rect x="4" y="4" width="359.526" height="55.5417" rx="15" fill="#70B15E"/>
<path opacity="0.5" d="M246.411 59.542H19C10.7158 59.542 4.00017 52.8261 4 44.542V19C4.00001 10.7157 10.7157 4 19 4H132.664L246.411 59.542Z" fill="#A2C758"/>
<g filter="url(#filter1_d_4_78)">
<path d="M90.2857 20.5714H92.4286V22.7143H90.2857V20.5714ZM88.1429 20.5714H90.2857V22.7143H88.1429V20.5714ZM88.1429 22.7143H90.2857V24.8571H88.1429V22.7143ZM90.2857 22.7143H92.4286V24.8571H90.2857V22.7143ZM92.4286 22.7143H94.5714V24.8571H92.4286V22.7143ZM92.4286 20.5714H94.5714V22.7143H92.4286V20.5714ZM94.5714 20.5714H96.7143V22.7143H94.5714V20.5714ZM96.7143 20.5714H98.8571V22.7143H96.7143V20.5714ZM96.7143 22.7143H98.8571V24.8571H96.7143V22.7143ZM94.5714 22.7143H96.7143V24.8571H94.5714V22.7143ZM96.7143 24.8571H98.8571V27H96.7143V24.8571ZM98.8571 22.7143H101V24.8571H98.8571V22.7143ZM98.8571 24.8571H101V27H98.8571V24.8571ZM98.8571 35.5714H101V37.7143H98.8571V35.5714ZM98.8571 37.7143H101V39.8571H98.8571V37.7143ZM96.7143 37.7143H98.8571V39.8571H96.7143V37.7143ZM96.7143 35.5714H98.8571V37.7143H96.7143V35.5714ZM94.5714 37.7143H96.7143V39.8571H94.5714V37.7143ZM96.7143 39.8571H98.8571V42H96.7143V39.8571ZM94.5714 39.8571H96.7143V42H94.5714V39.8571ZM92.4286 39.8571H94.5714V42H92.4286V39.8571ZM92.4286 37.7143H94.5714V39.8571H92.4286V37.7143ZM90.2857 39.8571H92.4286V42H90.2857V39.8571ZM88.1429 39.8571H90.2857V42H88.1429V39.8571ZM88.1429 37.7143H90.2857V39.8571H88.1429V37.7143ZM90.2857 37.7143H92.4286V39.8571H90.2857V37.7143ZM90.2857 35.5714H92.4286V37.7143H90.2857V35.5714ZM88.1429 35.5714H90.2857V37.7143H88.1429V35.5714ZM86 37.7143H88.1429V39.8571H86V37.7143ZM86 35.5714H88.1429V37.7143H86V35.5714ZM86 33.4286H88.1429V35.5714H86V33.4286ZM86 31.2857H88.1429V33.4286H86V31.2857ZM86 29.1429H88.1429V31.2857H86V29.1429ZM86 27H88.1429V29.1429H86V27ZM86 24.8571H88.1429V27H86V24.8571ZM88.1429 24.8571H90.2857V27H88.1429V24.8571ZM86 22.7143H88.1429V24.8571H86V22.7143ZM90.2857 24.8571H92.4286V27H90.2857V24.8571ZM88.1429 27H90.2857V29.1429H88.1429V27ZM88.1429 29.1429H90.2857V31.2857H88.1429V29.1429ZM88.1429 31.2857H90.2857V33.4286H88.1429V31.2857ZM88.1429 33.4286H90.2857V35.5714H88.1429V33.4286ZM104.748 27H106.891V29.1429H104.748V27ZM104.748 24.8571H106.891V27H104.748V24.8571ZM106.891 24.8571H109.034V27H106.891V24.8571ZM106.891 27H109.034V29.1429H106.891V27ZM106.891 29.1429H109.034V31.2857H106.891V29.1429ZM106.891 31.2857H109.034V33.4286H106.891V31.2857ZM106.891 33.4286H109.034V35.5714H106.891V33.4286ZM104.748 33.4286H106.891V35.5714H104.748V33.4286ZM104.748 31.2857H106.891V33.4286H104.748V31.2857ZM104.748 29.1429H106.891V31.2857H104.748V29.1429ZM104.748 35.5714H106.891V37.7143H104.748V35.5714ZM106.891 35.5714H109.034V37.7143H106.891V35.5714ZM106.891 37.7143H109.034V39.8571H106.891V37.7143ZM106.891 39.8571H109.034V42H106.891V39.8571ZM104.748 39.8571H106.891V42H104.748V39.8571ZM104.748 37.7143H106.891V39.8571H104.748V37.7143ZM109.034 27H111.177V29.1429H109.034V27ZM111.177 27H113.32V29.1429H111.177V27ZM113.32 27H115.463V29.1429H113.32V27ZM113.32 24.8571H115.463V27H113.32V24.8571ZM111.177 24.8571H113.32V27H111.177V24.8571ZM109.034 29.1429H111.177V31.2857H109.034V29.1429ZM115.463 27H117.606V29.1429H115.463V27ZM113.32 29.1429H115.463V31.2857H113.32V29.1429ZM125.634 24.8571H127.777V27H125.634V24.8571ZM123.491 24.8571H125.634V27H123.491V24.8571ZM123.491 27H125.634V29.1429H123.491V27ZM125.634 27H127.777V29.1429H125.634V27ZM127.777 24.8571H129.92V27H127.777V24.8571ZM129.92 24.8571H132.063V27H129.92V24.8571ZM132.063 24.8571H134.206V27H132.063V24.8571ZM132.063 27H134.206V29.1429H132.063V27ZM129.92 27H132.063V29.1429H129.92V27ZM134.206 27H136.348V29.1429H134.206V27ZM134.206 29.1429H136.348V31.2857H134.206V29.1429ZM134.206 37.7143H136.348V39.8571H134.206V37.7143ZM132.063 37.7143H134.206V39.8571H132.063V37.7143ZM132.063 29.1429H134.206V31.2857H132.063V29.1429ZM129.92 37.7143H132.063V39.8571H129.92V37.7143ZM132.063 39.8571H134.206V42H132.063V39.8571ZM129.92 39.8571H132.063V42H129.92V39.8571ZM127.777 39.8571H129.92V42H127.777V39.8571ZM125.634 39.8571H127.777V42H125.634V39.8571ZM123.491 39.8571H125.634V42H123.491V39.8571ZM123.491 37.7143H125.634V39.8571H123.491V37.7143ZM125.634 37.7143H127.777V39.8571H125.634V37.7143ZM123.491 35.5714H125.634V37.7143H123.491V35.5714ZM121.348 37.7143H123.491V39.8571H121.348V37.7143ZM121.348 35.5714H123.491V37.7143H121.348V35.5714ZM121.348 33.4286H123.491V35.5714H121.348V33.4286ZM121.348 31.2857H123.491V33.4286H121.348V31.2857ZM121.348 29.1429H123.491V31.2857H121.348V29.1429ZM121.348 27H123.491V29.1429H121.348V27ZM123.491 29.1429H125.634V31.2857H123.491V29.1429ZM123.491 31.2857H125.634V33.4286H123.491V31.2857ZM123.491 33.4286H125.634V35.5714H123.491V33.4286ZM127.777 37.7143H129.92V39.8571H127.777V37.7143ZM127.777 27H129.92V29.1429H127.777V27ZM132.063 31.2857H134.206V33.4286H132.063V31.2857ZM134.206 31.2857H136.348V33.4286H134.206V31.2857ZM125.634 33.4286H127.777V35.5714H125.634V33.4286ZM127.777 33.4286H129.92V35.5714H127.777V33.4286ZM129.92 33.4286H132.063V35.5714H129.92V33.4286ZM132.063 33.4286H134.206V35.5714H132.063V33.4286ZM134.206 33.4286H136.348V35.5714H134.206V33.4286ZM129.92 31.2857H132.063V33.4286H129.92V31.2857ZM127.777 31.2857H129.92V33.4286H127.777V31.2857ZM125.634 31.2857H127.777V33.4286H125.634V31.2857ZM152.954 42H150.811V39.8571H152.954V42ZM152.954 39.8571H150.811V37.7143H152.954V39.8571ZM150.811 39.8571H148.668V37.7143H150.811V39.8571ZM148.668 42H146.525V39.8571H148.668V42ZM146.525 42H144.383V39.8571H146.525V42ZM144.383 42H142.24V39.8571H144.383V42ZM144.383 39.8571H142.24V37.7143H144.383V39.8571ZM146.525 39.8571H144.383V37.7143H146.525V39.8571ZM142.24 39.8571H140.097V37.7143H142.24V39.8571ZM142.24 37.7143H140.097V35.5714H142.24V37.7143ZM142.24 29.1429H140.097V27H142.24V29.1429ZM144.383 29.1429H142.24V27H144.383V29.1429ZM144.383 37.7143H142.24V35.5714H144.383V37.7143ZM146.525 29.1429H144.383V27H146.525V29.1429ZM144.383 27H142.24V24.8571H144.383V27ZM146.525 27H144.383V24.8571H146.525V27ZM148.668 27H146.525V24.8571H148.668V27ZM150.811 27H148.668V24.8571H150.811V27ZM152.954 27H150.811V24.8571H152.954V27ZM152.954 29.1429H150.811V27H152.954V29.1429ZM150.811 29.1429H148.668V27H150.811V29.1429ZM152.954 31.2857H150.811V29.1429H152.954V31.2857ZM155.097 29.1429H152.954V27H155.097V29.1429ZM155.097 31.2857H152.954V29.1429H155.097V31.2857ZM155.097 33.4286H152.954V31.2857H155.097V33.4286ZM155.097 35.5714H152.954V33.4286H155.097V35.5714ZM155.097 37.7143H152.954V35.5714H155.097V37.7143ZM155.097 39.8571H152.954V37.7143H155.097V39.8571ZM152.954 37.7143H150.811V35.5714H152.954V37.7143ZM152.954 35.5714H150.811V33.4286H152.954V35.5714ZM152.954 33.4286H150.811V31.2857H152.954V33.4286ZM148.668 29.1429H146.525V27H148.668V29.1429ZM148.668 39.8571H146.525V37.7143H148.668V39.8571ZM152.954 39.8571H155.097V42H152.954V39.8571ZM148.668 31.2857H150.811V33.4286H148.668V31.2857ZM146.525 31.2857H148.668V33.4286H146.525V31.2857ZM144.383 31.2857H146.525V33.4286H144.383V31.2857ZM142.24 31.2857H144.383V33.4286H142.24V31.2857ZM140.097 33.4286H142.24V35.5714H140.097V33.4286ZM142.24 33.4286H144.383V35.5714H142.24V33.4286ZM148.668 33.4286H150.811V35.5714H148.668V33.4286ZM146.525 33.4286H148.668V35.5714H146.525V33.4286ZM144.383 33.4286H146.525V35.5714H144.383V33.4286ZM167.417 37.7143H169.56V39.8571H167.417V37.7143ZM167.417 39.8571H169.56V42H167.417V39.8571ZM165.274 39.8571H167.417V42H165.274V39.8571ZM165.274 37.7143H167.417V39.8571H165.274V37.7143ZM163.131 39.8571H165.274V42H163.131V39.8571ZM163.131 37.7143H165.274V39.8571H163.131V37.7143ZM160.988 37.7143H163.131V39.8571H160.988V37.7143ZM160.988 35.5714H163.131V37.7143H160.988V35.5714ZM160.988 33.4286H163.131V35.5714H160.988V33.4286ZM160.988 31.2857H163.131V33.4286H160.988V31.2857ZM160.988 29.1429H163.131V31.2857H160.988V29.1429ZM160.988 27H163.131V29.1429H160.988V27ZM163.131 33.4286H165.274V35.5714H163.131V33.4286ZM163.131 35.5714H165.274V37.7143H163.131V35.5714ZM163.131 31.2857H165.274V33.4286H163.131V31.2857ZM163.131 29.1429H165.274V31.2857H163.131V29.1429ZM163.131 20.5714H165.274V22.7143H163.131V20.5714ZM163.131 22.7143H165.274V24.8571H163.131V22.7143ZM163.131 24.8571H165.274V27H163.131V24.8571ZM163.131 27H165.274V29.1429H163.131V27ZM160.988 24.8571H163.131V27H160.988V24.8571ZM158.845 27H160.988V29.1429H158.845V27ZM165.274 27H167.417V29.1429H165.274V27ZM167.417 27H169.56V29.1429H167.417V27ZM160.988 22.7143H163.131V24.8571H160.988V22.7143ZM158.845 29.1429H160.988V31.2857H158.845V29.1429ZM165.274 29.1429H167.417V31.2857H165.274V29.1429ZM167.417 29.1429H169.56V31.2857H167.417V29.1429ZM177.583 24.8571H179.725V27H177.583V24.8571ZM175.44 24.8571H177.583V27H175.44V24.8571ZM175.44 27H177.583V29.1429H175.44V27ZM177.583 27H179.725V29.1429H177.583V27ZM179.725 24.8571H181.868V27H179.725V24.8571ZM181.868 24.8571H184.011V27H181.868V24.8571ZM184.011 24.8571H186.154V27H184.011V24.8571ZM184.011 27H186.154V29.1429H184.011V27ZM181.868 27H184.011V29.1429H181.868V27ZM186.154 27H188.297V29.1429H186.154V27ZM186.154 29.1429H188.297V31.2857H186.154V29.1429ZM186.154 37.7143H188.297V39.8571H186.154V37.7143ZM184.011 37.7143H186.154V39.8571H184.011V37.7143ZM184.011 29.1429H186.154V31.2857H184.011V29.1429ZM181.868 37.7143H184.011V39.8571H181.868V37.7143ZM184.011 39.8571H186.154V42H184.011V39.8571ZM181.868 39.8571H184.011V42H181.868V39.8571ZM179.725 39.8571H181.868V42H179.725V39.8571ZM177.583 39.8571H179.725V42H177.583V39.8571ZM175.44 39.8571H177.583V42H175.44V39.8571ZM175.44 37.7143H177.583V39.8571H175.44V37.7143ZM177.583 37.7143H179.725V39.8571H177.583V37.7143ZM175.44 35.5714H177.583V37.7143H175.44V35.5714ZM173.297 37.7143H175.44V39.8571H173.297V37.7143ZM173.297 35.5714H175.44V37.7143H173.297V35.5714ZM173.297 33.4286H175.44V35.5714H173.297V33.4286ZM173.297 31.2857H175.44V33.4286H173.297V31.2857ZM173.297 29.1429H175.44V31.2857H173.297V29.1429ZM173.297 27H175.44V29.1429H173.297V27ZM175.44 29.1429H177.583V31.2857H175.44V29.1429ZM175.44 31.2857H177.583V33.4286H175.44V31.2857ZM175.44 33.4286H177.583V35.5714H175.44V33.4286ZM179.725 37.7143H181.868V39.8571H179.725V37.7143ZM179.725 27H181.868V29.1429H179.725V27ZM184.011 31.2857H186.154V33.4286H184.011V31.2857ZM186.154 31.2857H188.297V33.4286H186.154V31.2857ZM177.583 33.4286H179.725V35.5714H177.583V33.4286ZM179.725 33.4286H181.868V35.5714H179.725V33.4286ZM181.868 33.4286H184.011V35.5714H181.868V33.4286ZM184.011 33.4286H186.154V35.5714H184.011V33.4286ZM186.154 33.4286H188.297V35.5714H186.154V33.4286ZM181.868 31.2857H184.011V33.4286H181.868V31.2857ZM179.725 31.2857H181.868V33.4286H179.725V31.2857ZM177.583 31.2857H179.725V33.4286H177.583V31.2857ZM206.486 20.5714H208.629V22.7143H206.486V20.5714ZM204.343 20.5714H206.486V22.7143H204.343V20.5714ZM204.343 22.7143H206.486V24.8571H204.343V22.7143ZM206.486 22.7143H208.629V24.8571H206.486V22.7143ZM208.629 22.7143H210.771V24.8571H208.629V22.7143ZM208.629 20.5714H210.771V22.7143H208.629V20.5714ZM210.771 20.5714H212.914V22.7143H210.771V20.5714ZM212.914 20.5714H215.057V22.7143H212.914V20.5714ZM212.914 22.7143H215.057V24.8571H212.914V22.7143ZM210.771 22.7143H212.914V24.8571H210.771V22.7143ZM212.914 24.8571H215.057V27H212.914V24.8571ZM215.057 22.7143H217.2V24.8571H215.057V22.7143ZM215.057 24.8571H217.2V27H215.057V24.8571ZM215.057 35.5714H217.2V37.7143H215.057V35.5714ZM215.057 37.7143H217.2V39.8571H215.057V37.7143ZM212.914 37.7143H215.057V39.8571H212.914V37.7143ZM212.914 35.5714H215.057V37.7143H212.914V35.5714ZM210.771 37.7143H212.914V39.8571H210.771V37.7143ZM212.914 39.8571H215.057V42H212.914V39.8571ZM210.771 39.8571H212.914V42H210.771V39.8571ZM208.629 39.8571H210.771V42H208.629V39.8571ZM208.629 37.7143H210.771V39.8571H208.629V37.7143ZM206.486 39.8571H208.629V42H206.486V39.8571ZM204.343 39.8571H206.486V42H204.343V39.8571ZM204.343 37.7143H206.486V39.8571H204.343V37.7143ZM206.486 37.7143H208.629V39.8571H206.486V37.7143ZM206.486 35.5714H208.629V37.7143H206.486V35.5714ZM204.343 35.5714H206.486V37.7143H204.343V35.5714ZM202.2 37.7143H204.343V39.8571H202.2V37.7143ZM202.2 35.5714H204.343V37.7143H202.2V35.5714ZM202.2 33.4286H204.343V35.5714H202.2V33.4286ZM202.2 31.2857H204.343V33.4286H202.2V31.2857ZM202.2 29.1429H204.343V31.2857H202.2V29.1429ZM202.2 27H204.343V29.1429H202.2V27ZM202.2 24.8571H204.343V27H202.2V24.8571ZM204.343 24.8571H206.486V27H204.343V24.8571ZM202.2 22.7143H204.343V24.8571H202.2V22.7143ZM206.486 24.8571H208.629V27H206.486V24.8571ZM204.343 27H206.486V29.1429H204.343V27ZM204.343 29.1429H206.486V31.2857H204.343V29.1429ZM204.343 31.2857H206.486V33.4286H204.343V31.2857ZM204.343 33.4286H206.486V35.5714H204.343V33.4286ZM215.057 33.4286H217.2V35.5714H215.057V33.4286ZM212.914 33.4286H215.057V35.5714H212.914V33.4286ZM212.914 31.2857H215.057V33.4286H212.914V31.2857ZM215.057 31.2857H217.2V33.4286H215.057V31.2857ZM215.057 29.1429H217.2V31.2857H215.057V29.1429ZM212.914 29.1429H215.057V31.2857H212.914V29.1429ZM210.771 29.1429H212.914V31.2857H210.771V29.1429ZM208.629 29.1429H210.771V31.2857H208.629V29.1429ZM208.629 31.2857H210.771V33.4286H208.629V31.2857ZM210.771 31.2857H212.914V33.4286H210.771V31.2857ZM233.806 42H231.663V39.8571H233.806V42ZM233.806 39.8571H231.663V37.7143H233.806V39.8571ZM231.663 39.8571H229.52V37.7143H231.663V39.8571ZM229.52 42H227.377V39.8571H229.52V42ZM227.377 42H225.234V39.8571H227.377V42ZM225.234 42H223.091V39.8571H225.234V42ZM225.234 39.8571H223.091V37.7143H225.234V39.8571ZM227.377 39.8571H225.234V37.7143H227.377V39.8571ZM223.091 39.8571H220.948V37.7143H223.091V39.8571ZM223.091 37.7143H220.948V35.5714H223.091V37.7143ZM223.091 29.1429H220.948V27H223.091V29.1429ZM225.234 29.1429H223.091V27H225.234V29.1429ZM225.234 37.7143H223.091V35.5714H225.234V37.7143ZM227.377 29.1429H225.234V27H227.377V29.1429ZM225.234 27H223.091V24.8571H225.234V27ZM227.377 27H225.234V24.8571H227.377V27ZM229.52 27H227.377V24.8571H229.52V27ZM231.663 27H229.52V24.8571H231.663V27ZM233.806 27H231.663V24.8571H233.806V27ZM233.806 29.1429H231.663V27H233.806V29.1429ZM231.663 29.1429H229.52V27H231.663V29.1429ZM233.806 31.2857H231.663V29.1429H233.806V31.2857ZM235.948 29.1429H233.806V27H235.948V29.1429ZM235.948 31.2857H233.806V29.1429H235.948V31.2857ZM235.948 33.4286H233.806V31.2857H235.948V33.4286ZM235.948 35.5714H233.806V33.4286H235.948V35.5714ZM235.948 37.7143H233.806V35.5714H235.948V37.7143ZM235.948 39.8571H233.806V37.7143H235.948V39.8571ZM233.806 37.7143H231.663V35.5714H233.806V37.7143ZM233.806 35.5714H231.663V33.4286H233.806V35.5714ZM233.806 33.4286H231.663V31.2857H233.806V33.4286ZM229.52 29.1429H227.377V27H229.52V29.1429ZM229.52 39.8571H227.377V37.7143H229.52V39.8571ZM233.806 39.8571H235.948V42H233.806V39.8571ZM229.52 31.2857H231.663V33.4286H229.52V31.2857ZM227.377 31.2857H229.52V33.4286H227.377V31.2857ZM225.234 31.2857H227.377V33.4286H225.234V31.2857ZM223.091 31.2857H225.234V33.4286H223.091V31.2857ZM220.948 33.4286H223.091V35.5714H220.948V33.4286ZM223.091 33.4286H225.234V35.5714H223.091V33.4286ZM229.52 33.4286H231.663V35.5714H229.52V33.4286ZM227.377 33.4286H229.52V35.5714H227.377V33.4286ZM225.234 33.4286H227.377V35.5714H225.234V33.4286ZM239.697 27H241.84V29.1429H239.697V27ZM239.697 24.8571H241.84V27H239.697V24.8571ZM241.84 24.8571H243.983V27H241.84V24.8571ZM241.84 27H243.983V29.1429H241.84V27ZM241.84 29.1429H243.983V31.2857H241.84V29.1429ZM241.84 31.2857H243.983V33.4286H241.84V31.2857ZM241.84 33.4286H243.983V35.5714H241.84V33.4286ZM239.697 33.4286H241.84V35.5714H239.697V33.4286ZM239.697 31.2857H241.84V33.4286H239.697V31.2857ZM239.697 29.1429H241.84V31.2857H239.697V29.1429ZM239.697 35.5714H241.84V37.7143H239.697V35.5714ZM241.84 35.5714H243.983V37.7143H241.84V35.5714ZM241.84 37.7143H243.983V39.8571H241.84V37.7143ZM241.84 39.8571H243.983V42H241.84V39.8571ZM239.697 39.8571H241.84V42H239.697V39.8571ZM239.697 37.7143H241.84V39.8571H239.697V37.7143ZM248.268 39.8571H250.411V42H248.268V39.8571ZM250.411 39.8571H252.554V42H250.411V39.8571ZM250.411 37.7143H252.554V39.8571H250.411V37.7143ZM250.411 35.5714H252.554V37.7143H250.411V35.5714ZM250.411 33.4286H252.554V35.5714H250.411V33.4286ZM250.411 31.2857H252.554V33.4286H250.411V31.2857ZM250.411 29.1429H252.554V31.2857H250.411V29.1429ZM250.411 27H252.554V29.1429H250.411V27ZM248.268 31.2857H250.411V33.4286H248.268V31.2857ZM248.268 33.4286H250.411V35.5714H248.268V33.4286ZM248.268 35.5714H250.411V37.7143H248.268V35.5714ZM248.268 37.7143H250.411V39.8571H248.268V37.7143ZM248.268 29.1429H250.411V31.2857H248.268V29.1429ZM243.983 27H246.125V29.1429H243.983V27ZM246.125 27H248.268V29.1429H246.125V27ZM248.268 24.8571H250.411V27H248.268V24.8571ZM248.268 27H250.411V29.1429H248.268V27ZM246.125 24.8571H248.268V27H246.125V24.8571ZM256.84 39.8571H258.983V42H256.84V39.8571ZM258.983 39.8571H261.125V42H258.983V39.8571ZM258.983 37.7143H261.125V39.8571H258.983V37.7143ZM258.983 35.5714H261.125V37.7143H258.983V35.5714ZM258.983 33.4286H261.125V35.5714H258.983V33.4286ZM258.983 31.2857H261.125V33.4286H258.983V31.2857ZM258.983 29.1429H261.125V31.2857H258.983V29.1429ZM258.983 27H261.125V29.1429H258.983V27ZM256.84 31.2857H258.983V33.4286H256.84V31.2857ZM256.84 33.4286H258.983V35.5714H256.84V33.4286ZM256.84 35.5714H258.983V37.7143H256.84V35.5714ZM256.84 37.7143H258.983V39.8571H256.84V37.7143ZM256.84 29.1429H258.983V31.2857H256.84V29.1429ZM252.554 27H254.697V29.1429H252.554V27ZM254.697 27H256.84V29.1429H254.697V27ZM256.84 24.8571H258.983V27H256.84V24.8571ZM256.84 27H258.983V29.1429H256.84V27ZM254.697 24.8571H256.84V27H254.697V24.8571ZM269.137 24.8571H271.28V27H269.137V24.8571ZM266.994 24.8571H269.137V27H266.994V24.8571ZM266.994 27H269.137V29.1429H266.994V27ZM269.137 27H271.28V29.1429H269.137V27ZM271.28 24.8571H273.423V27H271.28V24.8571ZM273.423 24.8571H275.566V27H273.423V24.8571ZM275.566 24.8571H277.709V27H275.566V24.8571ZM275.566 27H277.709V29.1429H275.566V27ZM273.423 27H275.566V29.1429H273.423V27ZM277.709 27H279.852V29.1429H277.709V27ZM277.709 29.1429H279.852V31.2857H277.709V29.1429ZM277.709 37.7143H279.852V39.8571H277.709V37.7143ZM275.566 37.7143H277.709V39.8571H275.566V37.7143ZM275.566 29.1429H277.709V31.2857H275.566V29.1429ZM273.423 37.7143H275.566V39.8571H273.423V37.7143ZM275.566 39.8571H277.709V42H275.566V39.8571ZM273.423 39.8571H275.566V42H273.423V39.8571ZM271.28 39.8571H273.423V42H271.28V39.8571ZM269.137 39.8571H271.28V42H269.137V39.8571ZM266.994 39.8571H269.137V42H266.994V39.8571ZM266.994 37.7143H269.137V39.8571H266.994V37.7143ZM269.137 37.7143H271.28V39.8571H269.137V37.7143ZM266.994 35.5714H269.137V37.7143H266.994V35.5714ZM264.852 37.7143H266.994V39.8571H264.852V37.7143ZM264.852 35.5714H266.994V37.7143H264.852V35.5714ZM264.852 33.4286H266.994V35.5714H264.852V33.4286ZM264.852 31.2857H266.994V33.4286H264.852V31.2857ZM264.852 29.1429H266.994V31.2857H264.852V29.1429ZM264.852 27H266.994V29.1429H264.852V27ZM266.994 29.1429H269.137V31.2857H266.994V29.1429ZM266.994 31.2857H269.137V33.4286H266.994V31.2857ZM266.994 33.4286H269.137V35.5714H266.994V33.4286ZM271.28 37.7143H273.423V39.8571H271.28V37.7143ZM271.28 27H273.423V29.1429H271.28V27ZM275.566 31.2857H277.709V33.4286H275.566V31.2857ZM277.709 31.2857H279.852V33.4286H277.709V31.2857ZM269.137 33.4286H271.28V35.5714H269.137V33.4286ZM271.28 33.4286H273.423V35.5714H271.28V33.4286ZM273.423 33.4286H275.566V35.5714H273.423V33.4286ZM275.566 33.4286H277.709V35.5714H275.566V33.4286ZM277.709 33.4286H279.852V35.5714H277.709V33.4286ZM273.423 31.2857H275.566V33.4286H273.423V31.2857ZM271.28 31.2857H273.423V33.4286H271.28V31.2857ZM269.137 31.2857H271.28V33.4286H269.137V31.2857Z" fill="white"/>
</g>
<defs>
<filter id="filter0_d_4_78" x="0" y="0" width="367.526" height="72" filterUnits="userSpaceOnUse" color-interpolation-filters="sRGB">
<feFlood flood-opacity="0" result="BackgroundImageFix"/>
<feColorMatrix in="SourceAlpha" type="matrix" values="0 0 0 0 0 0 0 0 0 0 0 0 0 0 0 0 0 0 127 0" result="hardAlpha"/>
<feOffset dy="2"/>
<feComposite in2="hardAlpha" operator="out"/>
<feColorMatrix type="matrix" values="0 0 0 0 0 0 0 0 0 0 0 0 0 0 0 0 0 0 0.15 0"/>
<feBlend mode="normal" in2="BackgroundImageFix" result="effect1_dropShadow_4_78"/>
<feBlend mode="normal" in="SourceGraphic" in2="effect1_dropShadow_4_78" result="shape"/>
</filter>
<filter id="filter1_d_4_78" x="86" y="20.5714" width="193.852" height="22.4286" filterUnits="userSpaceOnUse" color-interpolation-filters="sRGB">
<feFlood flood-opacity="0" result="BackgroundImageFix"/>
<feColorMatrix in="SourceAlpha" type="matrix" values="0 0 0 0 0 0 0 0 0 0 0 0 0 0 0 0 0 0 127 0" result="hardAlpha"/>
<feOffset dy="1"/>
<feComposite in2="hardAlpha" operator="out"/>
<feColorMatrix type="matrix" values="0 0 0 0 0 0 0 0 0 0 0 0 0 0 0 0 0 0 0.15 0"/>
<feBlend mode="normal" in2="BackgroundImageFix" result="effect1_dropShadow_4_78"/>
<feBlend mode="normal" in="SourceGraphic" in2="effect1_dropShadow_4_78" result="shape"/>
</filter>
</defs>
</svg>
