<svg width="277" height="72" viewBox="0 0 277 72" fill="none" xmlns="http://www.w3.org/2000/svg">
<g filter="url(#filter0_d_4_78)">
<rect x="4" y="4" width="269" height="62" rx="15" fill="#3C7247"/>
<rect x="2" y="2" width="273" height="66" rx="17" stroke="#2B5754" stroke-width="4"/>
</g>
<rect x="4" y="4" width="269" height="55.5417" rx="15" fill="#70B15E"/>
<path opacity="0.5" d="M185.374 59.542H19C10.7158 59.542 4.00017 52.8261 4 44.542V19C4.00001 10.7157 10.7157 4 19 4H100.267L185.374 59.542Z" fill="#A2C758"/>
<g filter="url(#filter1_d_4_78)">
<path d="M36 20.5714H38.1429V22.7143H36V20.5714ZM38.1429 20.5714H40.2857V22.7143H38.1429V20.5714ZM38.1429 22.7143H40.2857V24.8571H38.1429V22.7143ZM38.1429 24.8571H40.2857V27H38.1429V24.8571ZM38.1429 27H40.2857V29.1429H38.1429V27ZM36 27H38.1429V29.1429H36V27ZM36 24.8571H38.1429V27H36V24.8571ZM36 22.7143H38.1429V24.8571H36V22.7143ZM36 29.1429H38.1429V31.2857H36V29.1429ZM36 31.2857H38.1429V33.4286H36V31.2857ZM36 33.4286H38.1429V35.5714H36V33.4286ZM38.1429 31.2857H40.2857V33.4286H38.1429V31.2857ZM38.1429 29.1429H40.2857V31.2857H38.1429V29.1429ZM38.1429 33.4286H40.2857V35.5714H38.1429V33.4286ZM38.1429 35.5714H40.2857V37.7143H38.1429V35.5714ZM36 37.7143H38.1429V39.8571H36V37.7143ZM36 35.5714H38.1429V37.7143H36V35.5714ZM36 39.8571H38.1429V42H36V39.8571ZM38.1429 39.8571H40.2857V42H38.1429V39.8571ZM38.1429 37.7143H40.2857V39.8571H38.1429V37.7143ZM40.2857 39.8571H42.4286V42H40.2857V39.8571ZM42.4286 39.8571H44.5714V42H42.4286V39.8571ZM44.5714 39.8571H46.7143V42H44.5714V39.8571ZM44.5714 37.7143H46.7143V39.8571H44.5714V37.7143ZM42.4286 37.7143H44.5714V39.8571H42.4286V37.7143ZM40.2857 37.7143H42.4286V39.8571H40.2857V37.7143ZM40.2857 20.5714H42.4286V22.7143H40.2857V20.5714ZM42.4286 20.5714H44.5714V22.7143H42.4286V20.5714ZM44.5714 20.5714H46.7143V22.7143H44.5714V20.5714ZM46.7143 20.5714H48.8571V22.7143H46.7143V20.5714ZM44.5714 22.7143H46.7143V24.8571H44.5714V22.7143ZM42.4286 22.7143H44.5714V24.8571H42.4286V22.7143ZM40.2857 22.7143H42.4286V24.8571H40.2857V22.7143ZM40.2857 31.2857H42.4286V33.4286H40.2857V31.2857ZM42.4286 29.1429H44.5714V31.2857H42.4286V29.1429ZM40.2857 29.1429H42.4286V31.2857H40.2857V29.1429ZM42.4286 31.2857H44.5714V33.4286H42.4286V31.2857ZM46.7143 22.7143H48.8571V24.8571H46.7143V22.7143ZM46.7143 37.7143H48.8571V39.8571H46.7143V37.7143ZM46.7143 39.8571H48.8571V42H46.7143V39.8571ZM44.5714 29.1429H46.7143V31.2857H44.5714V29.1429ZM44.5714 31.2857H46.7143V33.4286H44.5714V31.2857ZM52.6 37.7143H54.7429V39.8571H52.6V37.7143ZM52.6 35.5714H54.7429V37.7143H52.6V35.5714ZM54.7429 35.5714H56.8857V37.7143H54.7429V35.5714ZM54.7429 37.7143H56.8857V39.8571H54.7429V37.7143ZM54.7429 33.4286H56.8857V35.5714H54.7429V33.4286ZM56.8857 33.4286H59.0286V35.5714H56.8857V33.4286ZM61.1714 33.4286H63.3143V35.5714H61.1714V33.4286ZM63.3143 33.4286H65.4571V35.5714H63.3143V33.4286ZM63.3143 37.7143H65.4571V39.8571H63.3143V37.7143ZM65.4571 37.7143H67.6V39.8571H65.4571V37.7143ZM65.4571 35.5714H67.6V37.7143H65.4571V35.5714ZM56.8857 31.2857H59.0286V33.4286H56.8857V31.2857ZM59.0286 31.2857H61.1714V33.4286H59.0286V31.2857ZM61.1714 31.2857H63.3143V33.4286H61.1714V31.2857ZM61.1714 29.1429H63.3143V31.2857H61.1714V29.1429ZM63.3143 29.1429H65.4571V31.2857H63.3143V29.1429ZM63.3143 27H65.4571V29.1429H63.3143V27ZM63.3143 24.8571H65.4571V27H63.3143V24.8571ZM65.4571 24.8571H67.6V27H65.4571V24.8571ZM65.4571 27H67.6V29.1429H65.4571V27ZM56.8857 29.1429H59.0286V31.2857H56.8857V29.1429ZM54.7429 29.1429H56.8857V31.2857H54.7429V29.1429ZM54.7429 27H56.8857V29.1429H54.7429V27ZM54.7429 24.8571H56.8857V27H54.7429V24.8571ZM52.6 24.8571H54.7429V27H52.6V24.8571ZM52.6 27H54.7429V29.1429H52.6V27ZM56.8857 35.5714H59.0286V37.7143H56.8857V35.5714ZM61.1714 35.5714H63.3143V37.7143H61.1714V35.5714ZM63.3143 35.5714H65.4571V37.7143H63.3143V35.5714ZM56.8857 27H59.0286V29.1429H56.8857V27ZM61.1714 27H63.3143V29.1429H61.1714V27ZM59.0286 29.1429H61.1714V31.2857H59.0286V29.1429ZM59.0286 33.4286H61.1714V35.5714H59.0286V33.4286ZM52.6 39.8571H54.7429V42H52.6V39.8571ZM54.7429 39.8571H56.8857V42H54.7429V39.8571ZM63.3143 39.8571H65.4571V42H63.3143V39.8571ZM65.4571 39.8571H67.6V42H65.4571V39.8571ZM71.3484 20.5714H75.6342V24.8571H71.3484V20.5714ZM71.3484 27H75.6342V42H71.3484V27ZM87.9652 37.7143H90.108V39.8571H87.9652V37.7143ZM87.9652 39.8571H90.108V42H87.9652V39.8571ZM85.8223 39.8571H87.9652V42H85.8223V39.8571ZM85.8223 37.7143H87.9652V39.8571H85.8223V37.7143ZM83.6795 39.8571H85.8223V42H83.6795V39.8571ZM83.6795 37.7143H85.8223V39.8571H83.6795V37.7143ZM81.5366 37.7143H83.6795V39.8571H81.5366V37.7143ZM81.5366 35.5714H83.6795V37.7143H81.5366V35.5714ZM81.5366 33.4286H83.6795V35.5714H81.5366V33.4286ZM81.5366 31.2857H83.6795V33.4286H81.5366V31.2857ZM81.5366 29.1429H83.6795V31.2857H81.5366V29.1429ZM81.5366 27H83.6795V29.1429H81.5366V27ZM83.6795 33.4286H85.8223V35.5714H83.6795V33.4286ZM83.6795 35.5714H85.8223V37.7143H83.6795V35.5714ZM83.6795 31.2857H85.8223V33.4286H83.6795V31.2857ZM83.6795 29.1429H85.8223V31.2857H83.6795V29.1429ZM83.6795 20.5714H85.8223V22.7143H83.6795V20.5714ZM83.6795 22.7143H85.8223V24.8571H83.6795V22.7143ZM83.6795 24.8571H85.8223V27H83.6795V24.8571ZM83.6795 27H85.8223V29.1429H83.6795V27ZM81.5366 24.8571H83.6795V27H81.5366V24.8571ZM79.3937 27H81.5366V29.1429H79.3937V27ZM85.8223 27H87.9652V29.1429H85.8223V27ZM87.9652 27H90.108V29.1429H87.9652V27ZM81.5366 22.7143H83.6795V24.8571H81.5366V22.7143ZM79.3937 29.1429H81.5366V31.2857H79.3937V29.1429ZM85.8223 29.1429H87.9652V31.2857H85.8223V29.1429ZM87.9652 29.1429H90.108V31.2857H87.9652V29.1429ZM108.286 20.5714H110.429V22.7143H108.286V20.5714ZM106.143 20.5714H108.286V22.7143H106.143V20.5714ZM106.143 22.7143H108.286V24.8571H106.143V22.7143ZM108.286 22.7143H110.429V24.8571H108.286V22.7143ZM110.429 22.7143H112.571V24.8571H110.429V22.7143ZM110.429 20.5714H112.571V22.7143H110.429V20.5714ZM112.571 20.5714H114.714V22.7143H112.571V20.5714ZM114.714 20.5714H116.857V22.7143H114.714V20.5714ZM114.714 22.7143H116.857V24.8571H114.714V22.7143ZM112.571 22.7143H114.714V24.8571H112.571V22.7143ZM114.714 24.8571H116.857V27H114.714V24.8571ZM116.857 22.7143H119V24.8571H116.857V22.7143ZM116.857 24.8571H119V27H116.857V24.8571ZM116.857 35.5714H119V37.7143H116.857V35.5714ZM116.857 37.7143H119V39.8571H116.857V37.7143ZM114.714 37.7143H116.857V39.8571H114.714V37.7143ZM114.714 35.5714H116.857V37.7143H114.714V35.5714ZM112.571 37.7143H114.714V39.8571H112.571V37.7143ZM114.714 39.8571H116.857V42H114.714V39.8571ZM112.571 39.8571H114.714V42H112.571V39.8571ZM110.429 39.8571H112.571V42H110.429V39.8571ZM110.429 37.7143H112.571V39.8571H110.429V37.7143ZM108.286 39.8571H110.429V42H108.286V39.8571ZM106.143 39.8571H108.286V42H106.143V39.8571ZM106.143 37.7143H108.286V39.8571H106.143V37.7143ZM108.286 37.7143H110.429V39.8571H108.286V37.7143ZM108.286 35.5714H110.429V37.7143H108.286V35.5714ZM106.143 35.5714H108.286V37.7143H106.143V35.5714ZM104 37.7143H106.143V39.8571H104V37.7143ZM104 35.5714H106.143V37.7143H104V35.5714ZM104 33.4286H106.143V35.5714H104V33.4286ZM104 31.2857H106.143V33.4286H104V31.2857ZM104 29.1429H106.143V31.2857H104V29.1429ZM104 27H106.143V29.1429H104V27ZM104 24.8571H106.143V27H104V24.8571ZM106.143 24.8571H108.286V27H106.143V24.8571ZM104 22.7143H106.143V24.8571H104V22.7143ZM108.286 24.8571H110.429V27H108.286V24.8571ZM106.143 27H108.286V29.1429H106.143V27ZM106.143 29.1429H108.286V31.2857H106.143V29.1429ZM106.143 31.2857H108.286V33.4286H106.143V31.2857ZM106.143 33.4286H108.286V35.5714H106.143V33.4286ZM116.857 33.4286H119V35.5714H116.857V33.4286ZM114.714 33.4286H116.857V35.5714H114.714V33.4286ZM114.714 31.2857H116.857V33.4286H114.714V31.2857ZM116.857 31.2857H119V33.4286H116.857V31.2857ZM116.857 29.1429H119V31.2857H116.857V29.1429ZM114.714 29.1429H116.857V31.2857H114.714V29.1429ZM112.571 29.1429H114.714V31.2857H112.571V29.1429ZM110.429 29.1429H112.571V31.2857H110.429V29.1429ZM110.429 31.2857H112.571V33.4286H110.429V31.2857ZM112.571 31.2857H114.714V33.4286H112.571V31.2857ZM135.606 42H133.463V39.8571H135.606V42ZM135.606 39.8571H133.463V37.7143H135.606V39.8571ZM133.463 39.8571H131.32V37.7143H133.463V39.8571ZM131.32 42H129.177V39.8571H131.32V42ZM129.177 42H127.034V39.8571H129.177V42ZM127.034 42H124.891V39.8571H127.034V42ZM127.034 39.8571H124.891V37.7143H127.034V39.8571ZM129.177 39.8571H127.034V37.7143H129.177V39.8571ZM124.891 39.8571H122.748V37.7143H124.891V39.8571ZM124.891 37.7143H122.748V35.5714H124.891V37.7143ZM124.891 29.1429H122.748V27H124.891V29.1429ZM127.034 29.1429H124.891V27H127.034V29.1429ZM127.034 37.7143H124.891V35.5714H127.034V37.7143ZM129.177 29.1429H127.034V27H129.177V29.1429ZM127.034 27H124.891V24.8571H127.034V27ZM129.177 27H127.034V24.8571H129.177V27ZM131.32 27H129.177V24.8571H131.32V27ZM133.463 27H131.32V24.8571H133.463V27ZM135.606 27H133.463V24.8571H135.606V27ZM135.606 29.1429H133.463V27H135.606V29.1429ZM133.463 29.1429H131.32V27H133.463V29.1429ZM135.606 31.2857H133.463V29.1429H135.606V31.2857ZM137.748 29.1429H135.606V27H137.748V29.1429ZM137.748 31.2857H135.606V29.1429H137.748V31.2857ZM137.748 33.4286H135.606V31.2857H137.748V33.4286ZM137.748 35.5714H135.606V33.4286H137.748V35.5714ZM137.748 37.7143H135.606V35.5714H137.748V37.7143ZM137.748 39.8571H135.606V37.7143H137.748V39.8571ZM135.606 37.7143H133.463V35.5714H135.606V37.7143ZM135.606 35.5714H133.463V33.4286H135.606V35.5714ZM135.606 33.4286H133.463V31.2857H135.606V33.4286ZM131.32 29.1429H129.177V27H131.32V29.1429ZM131.32 39.8571H129.177V37.7143H131.32V39.8571ZM135.606 39.8571H137.748V42H135.606V39.8571ZM131.32 31.2857H133.463V33.4286H131.32V31.2857ZM129.177 31.2857H131.32V33.4286H129.177V31.2857ZM127.034 31.2857H129.177V33.4286H127.034V31.2857ZM124.891 31.2857H127.034V33.4286H124.891V31.2857ZM122.748 33.4286H124.891V35.5714H122.748V33.4286ZM124.891 33.4286H127.034V35.5714H124.891V33.4286ZM131.32 33.4286H133.463V35.5714H131.32V33.4286ZM129.177 33.4286H131.32V35.5714H129.177V33.4286ZM127.034 33.4286H129.177V35.5714H127.034V33.4286ZM141.497 27H143.64V29.1429H141.497V27ZM141.497 24.8571H143.64V27H141.497V24.8571ZM143.64 24.8571H145.783V27H143.64V24.8571ZM143.64 27H145.783V29.1429H143.64V27ZM143.64 29.1429H145.783V31.2857H143.64V29.1429ZM143.64 31.2857H145.783V33.4286H143.64V31.2857ZM143.64 33.4286H145.783V35.5714H143.64V33.4286ZM141.497 33.4286H143.64V35.5714H141.497V33.4286ZM141.497 31.2857H143.64V33.4286H141.497V31.2857ZM141.497 29.1429H143.64V31.2857H141.497V29.1429ZM141.497 35.5714H143.64V37.7143H141.497V35.5714ZM143.64 35.5714H145.783V37.7143H143.64V35.5714ZM143.64 37.7143H145.783V39.8571H143.64V37.7143ZM143.64 39.8571H145.783V42H143.64V39.8571ZM141.497 39.8571H143.64V42H141.497V39.8571ZM141.497 37.7143H143.64V39.8571H141.497V37.7143ZM150.068 39.8571H152.211V42H150.068V39.8571ZM152.211 39.8571H154.354V42H152.211V39.8571ZM152.211 37.7143H154.354V39.8571H152.211V37.7143ZM152.211 35.5714H154.354V37.7143H152.211V35.5714ZM152.211 33.4286H154.354V35.5714H152.211V33.4286ZM152.211 31.2857H154.354V33.4286H152.211V31.2857ZM152.211 29.1429H154.354V31.2857H152.211V29.1429ZM152.211 27H154.354V29.1429H152.211V27ZM150.068 31.2857H152.211V33.4286H150.068V31.2857ZM150.068 33.4286H152.211V35.5714H150.068V33.4286ZM150.068 35.5714H152.211V37.7143H150.068V35.5714ZM150.068 37.7143H152.211V39.8571H150.068V37.7143ZM150.068 29.1429H152.211V31.2857H150.068V29.1429ZM145.783 27H147.925V29.1429H145.783V27ZM147.925 27H150.068V29.1429H147.925V27ZM150.068 24.8571H152.211V27H150.068V24.8571ZM150.068 27H152.211V29.1429H150.068V27ZM147.925 24.8571H150.068V27H147.925V24.8571ZM158.64 39.8571H160.783V42H158.64V39.8571ZM160.783 39.8571H162.925V42H160.783V39.8571ZM160.783 37.7143H162.925V39.8571H160.783V37.7143ZM160.783 35.5714H162.925V37.7143H160.783V35.5714ZM160.783 33.4286H162.925V35.5714H160.783V33.4286ZM160.783 31.2857H162.925V33.4286H160.783V31.2857ZM160.783 29.1429H162.925V31.2857H160.783V29.1429ZM160.783 27H162.925V29.1429H160.783V27ZM158.64 31.2857H160.783V33.4286H158.64V31.2857ZM158.64 33.4286H160.783V35.5714H158.64V33.4286ZM158.64 35.5714H160.783V37.7143H158.64V35.5714ZM158.64 37.7143H160.783V39.8571H158.64V37.7143ZM158.64 29.1429H160.783V31.2857H158.64V29.1429ZM154.354 27H156.497V29.1429H154.354V27ZM156.497 27H158.64V29.1429H156.497V27ZM158.64 24.8571H160.783V27H158.64V24.8571ZM158.64 27H160.783V29.1429H158.64V27ZM156.497 24.8571H158.64V27H156.497V24.8571ZM170.937 24.8571H173.08V27H170.937V24.8571ZM168.794 24.8571H170.937V27H168.794V24.8571ZM168.794 27H170.937V29.1429H168.794V27ZM170.937 27H173.08V29.1429H170.937V27ZM173.08 24.8571H175.223V27H173.08V24.8571ZM175.223 24.8571H177.366V27H175.223V24.8571ZM177.366 24.8571H179.509V27H177.366V24.8571ZM177.366 27H179.509V29.1429H177.366V27ZM175.223 27H177.366V29.1429H175.223V27ZM179.509 27H181.652V29.1429H179.509V27ZM179.509 29.1429H181.652V31.2857H179.509V29.1429ZM179.509 37.7143H181.652V39.8571H179.509V37.7143ZM177.366 37.7143H179.509V39.8571H177.366V37.7143ZM177.366 29.1429H179.509V31.2857H177.366V29.1429ZM175.223 37.7143H177.366V39.8571H175.223V37.7143ZM177.366 39.8571H179.509V42H177.366V39.8571ZM175.223 39.8571H177.366V42H175.223V39.8571ZM173.08 39.8571H175.223V42H173.08V39.8571ZM170.937 39.8571H173.08V42H170.937V39.8571ZM168.794 39.8571H170.937V42H168.794V39.8571ZM168.794 37.7143H170.937V39.8571H168.794V37.7143ZM170.937 37.7143H173.08V39.8571H170.937V37.7143ZM168.794 35.5714H170.937V37.7143H168.794V35.5714ZM166.652 37.7143H168.794V39.8571H166.652V37.7143ZM166.652 35.5714H168.794V37.7143H166.652V35.5714ZM166.652 33.4286H168.794V35.5714H166.652V33.4286ZM166.652 31.2857H168.794V33.4286H166.652V31.2857ZM166.652 29.1429H168.794V31.2857H166.652V29.1429ZM166.652 27H168.794V29.1429H166.652V27ZM168.794 29.1429H170.937V31.2857H168.794V29.1429ZM168.794 31.2857H170.937V33.4286H168.794V31.2857ZM168.794 33.4286H170.937V35.5714H168.794V33.4286ZM173.08 37.7143H175.223V39.8571H173.08V37.7143ZM173.08 27H175.223V29.1429H173.08V27ZM177.366 31.2857H179.509V33.4286H177.366V31.2857ZM179.509 31.2857H181.652V33.4286H179.509V31.2857ZM170.937 33.4286H173.08V35.5714H170.937V33.4286ZM173.08 33.4286H175.223V35.5714H173.08V33.4286ZM175.223 33.4286H177.366V35.5714H175.223V33.4286ZM177.366 33.4286H179.509V35.5714H177.366V33.4286ZM179.509 33.4286H181.652V35.5714H179.509V33.4286ZM175.223 31.2857H177.366V33.4286H175.223V31.2857ZM173.08 31.2857H175.223V33.4286H173.08V31.2857ZM170.937 31.2857H173.08V33.4286H170.937V31.2857Z" fill="white"/>
</g>
<path d="M209 47H226.5V39.5H224V44.5H214V22H224V27H226.5V19.5H209V47ZM229 39.5H231.5V37H229V39.5ZM231.5 37H234V34.5H236.5V32H234V29.5H231.5V32H216.5V34.5H231.5V37ZM229 29.5H231.5V27H229V29.5Z" fill="white"/>
<defs>
<filter id="filter0_d_4_78" x="0" y="0" width="277" height="72" filterUnits="userSpaceOnUse" color-interpolation-filters="sRGB">
<feFlood flood-opacity="0" result="BackgroundImageFix"/>
<feColorMatrix in="SourceAlpha" type="matrix" values="0 0 0 0 0 0 0 0 0 0 0 0 0 0 0 0 0 0 127 0" result="hardAlpha"/>
<feOffset dy="2"/>
<feComposite in2="hardAlpha" operator="out"/>
<feColorMatrix type="matrix" values="0 0 0 0 0 0 0 0 0 0 0 0 0 0 0 0 0 0 0.15 0"/>
<feBlend mode="normal" in2="BackgroundImageFix" result="effect1_dropShadow_4_78"/>
<feBlend mode="normal" in="SourceGraphic" in2="effect1_dropShadow_4_78" result="shape"/>
</filter>
<filter id="filter1_d_4_78" x="36" y="20.5714" width="145.652" height="22.4286" filterUnits="userSpaceOnUse" color-interpolation-filters="sRGB">
<feFlood flood-opacity="0" result="BackgroundImageFix"/>
<feColorMatrix in="SourceAlpha" type="matrix" values="0 0 0 0 0 0 0 0 0 0 0 0 0 0 0 0 0 0 127 0" result="hardAlpha"/>
<feOffset dy="1"/>
<feComposite in2="hardAlpha" operator="out"/>
<feColorMatrix type="matrix" values="0 0 0 0 0 0 0 0 0 0 0 0 0 0 0 0 0 0 0.15 0"/>
<feBlend mode="normal" in2="BackgroundImageFix" result="effect1_dropShadow_4_78"/>
<feBlend mode="normal" in="SourceGraphic" in2="effect1_dropShadow_4_78" result="shape"/>
</filter>
</defs>
</svg>
