<svg width="158" height="72" viewBox="0 0 158 72" fill="none" xmlns="http://www.w3.org/2000/svg">
<g filter="url(#filter0_d_11_26)">
<rect x="4" y="4" width="150" height="62" rx="15" fill="#3C7247"/>
<rect x="2" y="2" width="154" height="66" rx="17" stroke="#2B5754" stroke-width="4"/>
</g>
<rect x="4" y="4" width="150" height="55.5417" rx="15" fill="#70B15E"/>
<path opacity="0.5" d="M105.138 59.542H19C10.7158 59.542 4.00017 52.8261 4 44.542V19C4.00001 10.7157 10.7157 4 19 4H57.6807L105.138 59.542Z" fill="#A2C758"/>
<g filter="url(#filter1_d_11_26)">
<path d="M47.1429 20.5714H49.2857V22.7143H47.1429V20.5714ZM45 20.5714H47.1429V22.7143H45V20.5714ZM45 22.7143H47.1429V24.8571H45V22.7143ZM45 24.8571H47.1429V27H45V24.8571ZM45 27H47.1429V29.1429H45V27ZM45 29.1429H47.1429V31.2857H45V29.1429ZM45 31.2857H47.1429V33.4286H45V31.2857ZM45 33.4286H47.1429V35.5714H45V33.4286ZM45 35.5714H47.1429V37.7143H45V35.5714ZM45 37.7143H47.1429V39.8571H45V37.7143ZM45 39.8571H47.1429V42H45V39.8571ZM47.1429 39.8571H49.2857V42H47.1429V39.8571ZM47.1429 37.7143H49.2857V39.8571H47.1429V37.7143ZM47.1429 35.5714H49.2857V37.7143H47.1429V35.5714ZM47.1429 33.4286H49.2857V35.5714H47.1429V33.4286ZM47.1429 31.2857H49.2857V33.4286H47.1429V31.2857ZM47.1429 29.1429H49.2857V31.2857H47.1429V29.1429ZM47.1429 27H49.2857V29.1429H47.1429V27ZM47.1429 24.8571H49.2857V27H47.1429V24.8571ZM47.1429 22.7143H49.2857V24.8571H47.1429V22.7143ZM49.2857 31.2857H51.4286V33.4286H49.2857V31.2857ZM51.4286 31.2857H53.5714V33.4286H51.4286V31.2857ZM51.4286 29.1429H53.5714V31.2857H51.4286V29.1429ZM49.2857 29.1429H51.4286V31.2857H49.2857V29.1429ZM51.4286 27H53.5714V29.1429H51.4286V27ZM53.5714 27H55.7143V29.1429H53.5714V27ZM53.5714 24.8571H55.7143V27H53.5714V24.8571ZM53.5714 22.7143H55.7143V24.8571H53.5714V22.7143ZM53.5714 20.5714H55.7143V22.7143H53.5714V20.5714ZM55.7143 20.5714H57.8571V22.7143H55.7143V20.5714ZM55.7143 22.7143H57.8571V24.8571H55.7143V22.7143ZM55.7143 24.8571H57.8571V27H55.7143V24.8571ZM51.4286 33.4286H53.5714V35.5714H51.4286V33.4286ZM53.5714 33.4286H55.7143V35.5714H53.5714V33.4286ZM53.5714 35.5714H55.7143V37.7143H53.5714V35.5714ZM53.5714 37.7143H55.7143V39.8571H53.5714V37.7143ZM53.5714 39.8571H55.7143V42H53.5714V39.8571ZM55.7143 39.8571H57.8571V42H55.7143V39.8571ZM55.7143 37.7143H57.8571V39.8571H55.7143V37.7143ZM55.7143 35.5714H57.8571V37.7143H55.7143V35.5714ZM55.7143 33.4286H57.8571V35.5714H55.7143V33.4286ZM53.5714 31.2857H55.7143V33.4286H53.5714V31.2857ZM65.8857 24.8571H68.0286V27H65.8857V24.8571ZM63.7429 24.8571H65.8857V27H63.7429V24.8571ZM63.7429 27H65.8857V29.1429H63.7429V27ZM65.8857 27H68.0286V29.1429H65.8857V27ZM68.0286 24.8571H70.1714V27H68.0286V24.8571ZM70.1714 24.8571H72.3143V27H70.1714V24.8571ZM72.3143 24.8571H74.4571V27H72.3143V24.8571ZM72.3143 27H74.4571V29.1429H72.3143V27ZM70.1714 27H72.3143V29.1429H70.1714V27ZM74.4571 27H76.6V29.1429H74.4571V27ZM74.4571 29.1429H76.6V31.2857H74.4571V29.1429ZM74.4571 37.7143H76.6V39.8571H74.4571V37.7143ZM72.3143 37.7143H74.4571V39.8571H72.3143V37.7143ZM72.3143 29.1429H74.4571V31.2857H72.3143V29.1429ZM70.1714 37.7143H72.3143V39.8571H70.1714V37.7143ZM72.3143 39.8571H74.4571V42H72.3143V39.8571ZM70.1714 39.8571H72.3143V42H70.1714V39.8571ZM68.0286 39.8571H70.1714V42H68.0286V39.8571ZM65.8857 39.8571H68.0286V42H65.8857V39.8571ZM63.7429 39.8571H65.8857V42H63.7429V39.8571ZM63.7429 37.7143H65.8857V39.8571H63.7429V37.7143ZM65.8857 37.7143H68.0286V39.8571H65.8857V37.7143ZM63.7429 35.5714H65.8857V37.7143H63.7429V35.5714ZM61.6 37.7143H63.7429V39.8571H61.6V37.7143ZM61.6 35.5714H63.7429V37.7143H61.6V35.5714ZM61.6 33.4286H63.7429V35.5714H61.6V33.4286ZM61.6 31.2857H63.7429V33.4286H61.6V31.2857ZM61.6 29.1429H63.7429V31.2857H61.6V29.1429ZM61.6 27H63.7429V29.1429H61.6V27ZM63.7429 29.1429H65.8857V31.2857H63.7429V29.1429ZM63.7429 31.2857H65.8857V33.4286H63.7429V31.2857ZM63.7429 33.4286H65.8857V35.5714H63.7429V33.4286ZM68.0286 37.7143H70.1714V39.8571H68.0286V37.7143ZM68.0286 27H70.1714V29.1429H68.0286V27ZM72.3143 31.2857H74.4571V33.4286H72.3143V31.2857ZM74.4571 31.2857H76.6V33.4286H74.4571V31.2857ZM65.8857 33.4286H68.0286V35.5714H65.8857V33.4286ZM68.0286 33.4286H70.1714V35.5714H68.0286V33.4286ZM70.1714 33.4286H72.3143V35.5714H70.1714V33.4286ZM72.3143 33.4286H74.4571V35.5714H72.3143V33.4286ZM74.4571 33.4286H76.6V35.5714H74.4571V33.4286ZM70.1714 31.2857H72.3143V33.4286H70.1714V31.2857ZM68.0286 31.2857H70.1714V33.4286H68.0286V31.2857ZM65.8857 31.2857H68.0286V33.4286H65.8857V31.2857ZM80.3484 24.8571H82.4913V27H80.3484V24.8571ZM82.4913 24.8571H84.6342V27H82.4913V24.8571ZM82.4913 27H84.6342V29.1429H82.4913V27ZM82.4913 29.1429H84.6342V31.2857H82.4913V29.1429ZM82.4913 31.2857H84.6342V33.4286H82.4913V31.2857ZM80.3484 29.1429H82.4913V31.2857H80.3484V29.1429ZM80.3484 27H82.4913V29.1429H80.3484V27ZM80.3484 31.2857H82.4913V33.4286H80.3484V31.2857ZM80.3484 33.4286H82.4913V35.5714H80.3484V33.4286ZM82.4913 33.4286H84.6342V35.5714H82.4913V33.4286ZM82.4913 35.5714H84.6342V37.7143H82.4913V35.5714ZM84.6342 35.5714H86.777V37.7143H84.6342V35.5714ZM84.6342 37.7143H86.777V39.8571H84.6342V37.7143ZM86.777 37.7143H88.9199V39.8571H86.777V37.7143ZM88.9199 37.7143H91.0627V39.8571H88.9199V37.7143ZM88.9199 35.5714H91.0627V37.7143H88.9199V35.5714ZM88.9199 33.4286H91.0627V35.5714H88.9199V33.4286ZM91.0627 33.4286H93.2056V35.5714H91.0627V33.4286ZM91.0627 35.5714H93.2056V37.7143H91.0627V35.5714ZM91.0627 31.2857H93.2056V33.4286H91.0627V31.2857ZM88.9199 31.2857H91.0627V33.4286H88.9199V31.2857ZM88.9199 24.8571H91.0627V27H88.9199V24.8571ZM91.0627 24.8571H93.2056V27H91.0627V24.8571ZM91.0627 27H93.2056V29.1429H91.0627V27ZM91.0627 29.1429H93.2056V31.2857H91.0627V29.1429ZM88.9199 27H91.0627V29.1429H88.9199V27ZM88.9199 29.1429H91.0627V31.2857H88.9199V29.1429ZM86.777 39.8571H88.9199V42H86.777V39.8571ZM84.6342 39.8571H86.777V42H84.6342V39.8571ZM84.6342 42H86.777V44.1429H84.6342V42ZM82.4913 42H84.6342V44.1429H82.4913V42ZM82.4913 39.8571H84.6342V42H82.4913V39.8571ZM82.4913 44.1429H84.6342V46.2857H82.4913V44.1429ZM80.3484 44.1429H82.4913V46.2857H80.3484V44.1429ZM80.3484 42H82.4913V44.1429H80.3484V42ZM86.777 35.5714H88.9199V37.7143H86.777V35.5714ZM84.6342 33.4286H86.777V35.5714H84.6342V33.4286ZM96.9484 27H99.0913V29.1429H96.9484V27ZM99.0913 29.1429H101.234V31.2857H99.0913V29.1429ZM96.9484 29.1429H99.0913V31.2857H96.9484V29.1429ZM96.9484 31.2857H99.0913V33.4286H96.9484V31.2857ZM99.0913 31.2857H101.234V33.4286H99.0913V31.2857ZM99.0913 33.4286H101.234V35.5714H99.0913V33.4286ZM101.234 33.4286H103.377V35.5714H101.234V33.4286ZM103.377 33.4286H105.52V35.5714H103.377V33.4286ZM105.52 31.2857H107.663V33.4286H105.52V31.2857ZM103.377 31.2857H105.52V33.4286H103.377V31.2857ZM101.234 31.2857H103.377V33.4286H101.234V31.2857ZM105.52 33.4286H107.663V35.5714H105.52V33.4286ZM107.663 33.4286H109.806V35.5714H107.663V33.4286ZM107.663 35.5714H109.806V37.7143H107.663V35.5714ZM105.52 35.5714H107.663V37.7143H105.52V35.5714ZM105.52 37.7143H107.663V39.8571H105.52V37.7143ZM107.663 37.7143H109.806V39.8571H107.663V37.7143ZM105.52 39.8571H107.663V42H105.52V39.8571ZM103.377 37.7143H105.52V39.8571H103.377V37.7143ZM101.234 37.7143H103.377V39.8571H101.234V37.7143ZM99.0913 37.7143H101.234V39.8571H99.0913V37.7143ZM96.9484 37.7143H99.0913V39.8571H96.9484V37.7143ZM99.0913 39.8571H101.234V42H99.0913V39.8571ZM101.234 39.8571H103.377V42H101.234V39.8571ZM103.377 39.8571H105.52V42H103.377V39.8571ZM107.663 27H109.806V29.1429H107.663V27ZM105.52 27H107.663V29.1429H105.52V27ZM105.52 24.8571H107.663V27H105.52V24.8571ZM103.377 24.8571H105.52V27H103.377V24.8571ZM101.234 24.8571H103.377V27H101.234V24.8571ZM99.0913 24.8571H101.234V27H99.0913V24.8571ZM99.0913 27H101.234V29.1429H99.0913V27ZM101.234 27H103.377V29.1429H101.234V27ZM103.377 27H105.52V29.1429H103.377V27Z" fill="white"/>
</g>
<defs>
<filter id="filter0_d_11_26" x="0" y="0" width="158" height="72" filterUnits="userSpaceOnUse" color-interpolation-filters="sRGB">
<feFlood flood-opacity="0" result="BackgroundImageFix"/>
<feColorMatrix in="SourceAlpha" type="matrix" values="0 0 0 0 0 0 0 0 0 0 0 0 0 0 0 0 0 0 127 0" result="hardAlpha"/>
<feOffset dy="2"/>
<feComposite in2="hardAlpha" operator="out"/>
<feColorMatrix type="matrix" values="0 0 0 0 0 0 0 0 0 0 0 0 0 0 0 0 0 0 0.15 0"/>
<feBlend mode="normal" in2="BackgroundImageFix" result="effect1_dropShadow_11_26"/>
<feBlend mode="normal" in="SourceGraphic" in2="effect1_dropShadow_11_26" result="shape"/>
</filter>
<filter id="filter1_d_11_26" x="45" y="20.5714" width="64.8056" height="26.7143" filterUnits="userSpaceOnUse" color-interpolation-filters="sRGB">
<feFlood flood-opacity="0" result="BackgroundImageFix"/>
<feColorMatrix in="SourceAlpha" type="matrix" values="0 0 0 0 0 0 0 0 0 0 0 0 0 0 0 0 0 0 127 0" result="hardAlpha"/>
<feOffset dy="1"/>
<feComposite in2="hardAlpha" operator="out"/>
<feColorMatrix type="matrix" values="0 0 0 0 0 0 0 0 0 0 0 0 0 0 0 0 0 0 0.15 0"/>
<feBlend mode="normal" in2="BackgroundImageFix" result="effect1_dropShadow_11_26"/>
<feBlend mode="normal" in="SourceGraphic" in2="effect1_dropShadow_11_26" result="shape"/>
</filter>
</defs>
</svg>
