<svg width="176" height="72" viewBox="0 0 176 72" fill="none" xmlns="http://www.w3.org/2000/svg">
<g filter="url(#filter0_d_11_35)">
<rect x="4" y="4" width="168" height="62" rx="15" fill="#3C7247"/>
<rect x="2" y="2" width="172" height="66" rx="17" stroke="#2B5754" stroke-width="4"/>
</g>
<rect x="4" y="4" width="168" height="55.5417" rx="15" fill="#70B15E"/>
<path opacity="0.5" d="M117.274 59.542H19C10.7158 59.542 4.00017 52.8261 4 44.542V19C4.00001 10.7157 10.7157 4 19 4H64.1221L117.274 59.542Z" fill="#A2C758"/>
<g filter="url(#filter1_d_11_35)">
<path d="M43.8904 20.5714H46.0333V22.7143H43.8904V20.5714ZM46.0333 20.5714H48.1761V22.7143H46.0333V20.5714ZM46.0333 22.7143H48.1761V24.8571H46.0333V22.7143ZM46.0333 24.8571H48.1761V27H46.0333V24.8571ZM46.0333 27H48.1761V29.1429H46.0333V27ZM43.8904 27H46.0333V29.1429H43.8904V27ZM43.8904 24.8571H46.0333V27H43.8904V24.8571ZM43.8904 22.7143H46.0333V24.8571H43.8904V22.7143ZM43.8904 29.1429H46.0333V31.2857H43.8904V29.1429ZM43.8904 31.2857H46.0333V33.4286H43.8904V31.2857ZM43.8904 33.4286H46.0333V35.5714H43.8904V33.4286ZM46.0333 31.2857H48.1761V33.4286H46.0333V31.2857ZM46.0333 29.1429H48.1761V31.2857H46.0333V29.1429ZM46.0333 33.4286H48.1761V35.5714H46.0333V33.4286ZM46.0333 35.5714H48.1761V37.7143H46.0333V35.5714ZM43.8904 37.7143H46.0333V39.8571H43.8904V37.7143ZM43.8904 35.5714H46.0333V37.7143H43.8904V35.5714ZM43.8904 39.8571H46.0333V42H43.8904V39.8571ZM46.0333 39.8571H48.1761V42H46.0333V39.8571ZM46.0333 37.7143H48.1761V39.8571H46.0333V37.7143ZM48.1761 39.8571H50.319V42H48.1761V39.8571ZM50.319 39.8571H52.4618V42H50.319V39.8571ZM52.4618 39.8571H54.6047V42H52.4618V39.8571ZM52.4618 37.7143H54.6047V39.8571H52.4618V37.7143ZM50.319 37.7143H52.4618V39.8571H50.319V37.7143ZM48.1761 37.7143H50.319V39.8571H48.1761V37.7143ZM62.6277 20.5714H64.7705V22.7143H62.6277V20.5714ZM60.4848 20.5714H62.6277V22.7143H60.4848V20.5714ZM60.4848 22.7143H62.6277V24.8571H60.4848V22.7143ZM62.6277 22.7143H64.7705V24.8571H62.6277V22.7143ZM64.7705 22.7143H66.9134V24.8571H64.7705V22.7143ZM64.7705 20.5714H66.9134V22.7143H64.7705V20.5714ZM66.9134 20.5714H69.0563V22.7143H66.9134V20.5714ZM69.0563 20.5714H71.1991V22.7143H69.0563V20.5714ZM69.0563 22.7143H71.1991V24.8571H69.0563V22.7143ZM66.9134 22.7143H69.0563V24.8571H66.9134V22.7143ZM66.9134 24.8571H69.0563V27H66.9134V24.8571ZM69.0563 24.8571H71.1991V27H69.0563V24.8571ZM71.1991 22.7143H73.342V24.8571H71.1991V22.7143ZM71.1991 24.8571H73.342V27H71.1991V24.8571ZM71.1991 27H73.342V29.1429H71.1991V27ZM71.1991 29.1429H73.342V31.2857H71.1991V29.1429ZM71.1991 31.2857H73.342V33.4286H71.1991V31.2857ZM71.1991 33.4286H73.342V35.5714H71.1991V33.4286ZM71.1991 35.5714H73.342V37.7143H71.1991V35.5714ZM71.1991 37.7143H73.342V39.8571H71.1991V37.7143ZM69.0563 37.7143H71.1991V39.8571H69.0563V37.7143ZM69.0563 35.5714H71.1991V37.7143H69.0563V35.5714ZM69.0563 33.4286H71.1991V35.5714H69.0563V33.4286ZM69.0563 31.2857H71.1991V33.4286H69.0563V31.2857ZM69.0563 29.1429H71.1991V31.2857H69.0563V29.1429ZM69.0563 27H71.1991V29.1429H69.0563V27ZM66.9134 35.5714H69.0563V37.7143H66.9134V35.5714ZM66.9134 37.7143H69.0563V39.8571H66.9134V37.7143ZM69.0563 39.8571H71.1991V42H69.0563V39.8571ZM66.9134 39.8571H69.0563V42H66.9134V39.8571ZM64.7705 39.8571H66.9134V42H64.7705V39.8571ZM64.7705 37.7143H66.9134V39.8571H64.7705V37.7143ZM62.6277 39.8571H64.7705V42H62.6277V39.8571ZM60.4848 39.8571H62.6277V42H60.4848V39.8571ZM60.4848 37.7143H62.6277V39.8571H60.4848V37.7143ZM62.6277 37.7143H64.7705V39.8571H62.6277V37.7143ZM62.6277 35.5714H64.7705V37.7143H62.6277V35.5714ZM60.4848 35.5714H62.6277V37.7143H60.4848V35.5714ZM58.342 37.7143H60.4848V39.8571H58.342V37.7143ZM58.342 35.5714H60.4848V37.7143H58.342V35.5714ZM58.342 33.4286H60.4848V35.5714H58.342V33.4286ZM58.342 31.2857H60.4848V33.4286H58.342V31.2857ZM58.342 29.1429H60.4848V31.2857H58.342V29.1429ZM58.342 27H60.4848V29.1429H58.342V27ZM58.342 24.8571H60.4848V27H58.342V24.8571ZM60.4848 24.8571H62.6277V27H60.4848V24.8571ZM58.342 22.7143H60.4848V24.8571H58.342V22.7143ZM62.6277 24.8571H64.7705V27H62.6277V24.8571ZM60.4848 27H62.6277V29.1429H60.4848V27ZM60.4848 29.1429H62.6277V31.2857H60.4848V29.1429ZM60.4848 31.2857H62.6277V33.4286H60.4848V31.2857ZM60.4848 33.4286H62.6277V35.5714H60.4848V33.4286ZM77.0904 20.5714H79.2333V22.7143H77.0904V20.5714ZM79.2333 20.5714H81.3761V22.7143H79.2333V20.5714ZM81.3761 20.5714H83.519V22.7143H81.3761V20.5714ZM83.519 20.5714H85.6618V22.7143H83.519V20.5714ZM85.6618 20.5714H87.8047V22.7143H85.6618V20.5714ZM87.8047 20.5714H89.9476V22.7143H87.8047V20.5714ZM87.8047 22.7143H89.9476V24.8571H87.8047V22.7143ZM85.6618 22.7143H87.8047V24.8571H85.6618V22.7143ZM83.519 22.7143H85.6618V24.8571H83.519V22.7143ZM81.3761 22.7143H83.519V24.8571H81.3761V22.7143ZM79.2333 22.7143H81.3761V24.8571H79.2333V22.7143ZM77.0904 22.7143H79.2333V24.8571H77.0904V22.7143ZM89.9476 22.7143H92.0904V24.8571H89.9476V22.7143ZM89.9476 24.8571H92.0904V27H89.9476V24.8571ZM89.9476 27H92.0904V29.1429H89.9476V27ZM87.8047 27H89.9476V29.1429H87.8047V27ZM87.8047 24.8571H89.9476V27H87.8047V24.8571ZM87.8047 29.1429H89.9476V31.2857H87.8047V29.1429ZM85.6618 29.1429H87.8047V31.2857H85.6618V29.1429ZM83.519 29.1429H85.6618V31.2857H83.519V29.1429ZM81.3761 29.1429H83.519V31.2857H81.3761V29.1429ZM79.2333 29.1429H81.3761V31.2857H79.2333V29.1429ZM79.2333 27H81.3761V29.1429H79.2333V27ZM79.2333 24.8571H81.3761V27H79.2333V24.8571ZM77.0904 24.8571H79.2333V27H77.0904V24.8571ZM77.0904 27H79.2333V29.1429H77.0904V27ZM77.0904 29.1429H79.2333V31.2857H77.0904V29.1429ZM77.0904 31.2857H79.2333V33.4286H77.0904V31.2857ZM79.2333 31.2857H81.3761V33.4286H79.2333V31.2857ZM81.3761 31.2857H83.519V33.4286H81.3761V31.2857ZM83.519 31.2857H85.6618V33.4286H83.519V31.2857ZM85.6618 31.2857H87.8047V33.4286H85.6618V31.2857ZM87.8047 31.2857H89.9476V33.4286H87.8047V31.2857ZM89.9476 31.2857H92.0904V33.4286H89.9476V31.2857ZM89.9476 33.4286H92.0904V35.5714H89.9476V33.4286ZM87.8047 33.4286H89.9476V35.5714H87.8047V33.4286ZM87.8047 37.7143H89.9476V39.8571H87.8047V37.7143ZM89.9476 37.7143H92.0904V39.8571H89.9476V37.7143ZM89.9476 35.5714H92.0904V37.7143H89.9476V35.5714ZM87.8047 35.5714H89.9476V37.7143H87.8047V35.5714ZM87.8047 39.8571H89.9476V42H87.8047V39.8571ZM85.6618 39.8571H87.8047V42H85.6618V39.8571ZM83.519 39.8571H85.6618V42H83.519V39.8571ZM81.3761 39.8571H83.519V42H81.3761V39.8571ZM79.2333 39.8571H81.3761V42H79.2333V39.8571ZM77.0904 39.8571H79.2333V42H77.0904V39.8571ZM77.0904 37.7143H79.2333V39.8571H77.0904V37.7143ZM77.0904 35.5714H79.2333V37.7143H77.0904V35.5714ZM77.0904 33.4286H79.2333V35.5714H77.0904V33.4286ZM79.2333 33.4286H81.3761V35.5714H79.2333V33.4286ZM79.2333 35.5714H81.3761V37.7143H79.2333V35.5714ZM79.2333 37.7143H81.3761V39.8571H79.2333V37.7143ZM81.3761 37.7143H83.519V39.8571H81.3761V37.7143ZM83.519 37.7143H85.6618V39.8571H83.519V37.7143ZM85.6618 37.7143H87.8047V39.8571H85.6618V37.7143ZM95.8389 20.5714H97.9817V22.7143H95.8389V20.5714ZM97.9817 20.5714H100.125V22.7143H97.9817V20.5714ZM100.125 20.5714H102.267V22.7143H100.125V20.5714ZM102.267 20.5714H104.41V22.7143H102.267V20.5714ZM104.41 20.5714H106.553V22.7143H104.41V20.5714ZM106.553 20.5714H108.696V22.7143H106.553V20.5714ZM106.553 22.7143H108.696V24.8571H106.553V22.7143ZM104.41 22.7143H106.553V24.8571H104.41V22.7143ZM102.267 22.7143H104.41V24.8571H102.267V22.7143ZM100.125 22.7143H102.267V24.8571H100.125V22.7143ZM97.9817 22.7143H100.125V24.8571H97.9817V22.7143ZM95.8389 22.7143H97.9817V24.8571H95.8389V22.7143ZM108.696 22.7143H110.839V24.8571H108.696V22.7143ZM108.696 24.8571H110.839V27H108.696V24.8571ZM108.696 27H110.839V29.1429H108.696V27ZM106.553 27H108.696V29.1429H106.553V27ZM106.553 24.8571H108.696V27H106.553V24.8571ZM106.553 29.1429H108.696V31.2857H106.553V29.1429ZM104.41 29.1429H106.553V31.2857H104.41V29.1429ZM102.267 29.1429H104.41V31.2857H102.267V29.1429ZM100.125 29.1429H102.267V31.2857H100.125V29.1429ZM97.9817 29.1429H100.125V31.2857H97.9817V29.1429ZM97.9817 27H100.125V29.1429H97.9817V27ZM97.9817 24.8571H100.125V27H97.9817V24.8571ZM95.8389 24.8571H97.9817V27H95.8389V24.8571ZM95.8389 27H97.9817V29.1429H95.8389V27ZM95.8389 29.1429H97.9817V31.2857H95.8389V29.1429ZM95.8389 31.2857H97.9817V33.4286H95.8389V31.2857ZM97.9817 31.2857H100.125V33.4286H97.9817V31.2857ZM100.125 31.2857H102.267V33.4286H100.125V31.2857ZM102.267 31.2857H104.41V33.4286H102.267V31.2857ZM104.41 31.2857H106.553V33.4286H104.41V31.2857ZM106.553 31.2857H108.696V33.4286H106.553V31.2857ZM108.696 31.2857H110.839V33.4286H108.696V31.2857ZM108.696 33.4286H110.839V35.5714H108.696V33.4286ZM106.553 33.4286H108.696V35.5714H106.553V33.4286ZM106.553 37.7143H108.696V39.8571H106.553V37.7143ZM108.696 37.7143H110.839V39.8571H108.696V37.7143ZM108.696 35.5714H110.839V37.7143H108.696V35.5714ZM106.553 35.5714H108.696V37.7143H106.553V35.5714ZM106.553 39.8571H108.696V42H106.553V39.8571ZM104.41 39.8571H106.553V42H104.41V39.8571ZM102.267 39.8571H104.41V42H102.267V39.8571ZM100.125 39.8571H102.267V42H100.125V39.8571ZM97.9817 39.8571H100.125V42H97.9817V39.8571ZM95.8389 39.8571H97.9817V42H95.8389V39.8571ZM95.8389 37.7143H97.9817V39.8571H95.8389V37.7143ZM95.8389 35.5714H97.9817V37.7143H95.8389V35.5714ZM95.8389 33.4286H97.9817V35.5714H95.8389V33.4286ZM97.9817 33.4286H100.125V35.5714H97.9817V33.4286ZM97.9817 35.5714H100.125V37.7143H97.9817V35.5714ZM97.9817 37.7143H100.125V39.8571H97.9817V37.7143ZM100.125 37.7143H102.267V39.8571H100.125V37.7143ZM102.267 37.7143H104.41V39.8571H102.267V37.7143ZM104.41 37.7143H106.553V39.8571H104.41V37.7143ZM114.587 20.5714H116.73V22.7143H114.587V20.5714ZM116.73 20.5714H118.873V22.7143H116.73V20.5714ZM116.73 22.7143H118.873V24.8571H116.73V22.7143ZM116.73 24.8571H118.873V27H116.73V24.8571ZM114.587 24.8571H116.73V27H114.587V24.8571ZM114.587 22.7143H116.73V24.8571H114.587V22.7143ZM114.587 27H116.73V29.1429H114.587V27ZM114.587 29.1429H116.73V31.2857H114.587V29.1429ZM116.73 29.1429H118.873V31.2857H116.73V29.1429ZM116.73 27H118.873V29.1429H116.73V27ZM116.73 31.2857H118.873V33.4286H116.73V31.2857ZM118.873 31.2857H121.016V33.4286H118.873V31.2857ZM118.873 29.1429H121.016V31.2857H118.873V29.1429ZM118.873 33.4286H121.016V35.5714H118.873V33.4286ZM121.016 33.4286H123.159V35.5714H121.016V33.4286ZM121.016 31.2857H123.159V33.4286H121.016V31.2857ZM123.159 31.2857H125.302V33.4286H123.159V31.2857ZM123.159 33.4286H125.302V35.5714H123.159V33.4286ZM125.302 33.4286H127.444V35.5714H125.302V33.4286ZM125.302 31.2857H127.444V33.4286H125.302V31.2857ZM125.302 29.1429H127.444V31.2857H125.302V29.1429ZM127.444 29.1429H129.587V31.2857H127.444V29.1429ZM127.444 31.2857H129.587V33.4286H127.444V31.2857ZM127.444 27H129.587V29.1429H127.444V27ZM127.444 24.8571H129.587V27H127.444V24.8571ZM127.444 22.7143H129.587V24.8571H127.444V22.7143ZM127.444 20.5714H129.587V22.7143H127.444V20.5714ZM129.587 20.5714H131.73V22.7143H129.587V20.5714ZM129.587 22.7143H131.73V24.8571H129.587V22.7143ZM129.587 24.8571H131.73V27H129.587V24.8571ZM129.587 27H131.73V29.1429H129.587V27ZM129.587 29.1429H131.73V31.2857H129.587V29.1429ZM121.016 35.5714H123.159V37.7143H121.016V35.5714ZM121.016 37.7143H123.159V39.8571H121.016V37.7143ZM121.016 39.8571H123.159V42H121.016V39.8571ZM123.159 39.8571H125.302V42H123.159V39.8571ZM123.159 37.7143H125.302V39.8571H123.159V37.7143ZM123.159 35.5714H125.302V37.7143H123.159V35.5714Z" fill="white"/>
</g>
<defs>
<filter id="filter0_d_11_35" x="0" y="0" width="176" height="72" filterUnits="userSpaceOnUse" color-interpolation-filters="sRGB">
<feFlood flood-opacity="0" result="BackgroundImageFix"/>
<feColorMatrix in="SourceAlpha" type="matrix" values="0 0 0 0 0 0 0 0 0 0 0 0 0 0 0 0 0 0 127 0" result="hardAlpha"/>
<feOffset dy="2"/>
<feComposite in2="hardAlpha" operator="out"/>
<feColorMatrix type="matrix" values="0 0 0 0 0 0 0 0 0 0 0 0 0 0 0 0 0 0 0.15 0"/>
<feBlend mode="normal" in2="BackgroundImageFix" result="effect1_dropShadow_11_35"/>
<feBlend mode="normal" in="SourceGraphic" in2="effect1_dropShadow_11_35" result="shape"/>
</filter>
<filter id="filter1_d_11_35" x="43.8904" y="20.5714" width="87.8397" height="22.4286" filterUnits="userSpaceOnUse" color-interpolation-filters="sRGB">
<feFlood flood-opacity="0" result="BackgroundImageFix"/>
<feColorMatrix in="SourceAlpha" type="matrix" values="0 0 0 0 0 0 0 0 0 0 0 0 0 0 0 0 0 0 127 0" result="hardAlpha"/>
<feOffset dy="1"/>
<feComposite in2="hardAlpha" operator="out"/>
<feColorMatrix type="matrix" values="0 0 0 0 0 0 0 0 0 0 0 0 0 0 0 0 0 0 0.15 0"/>
<feBlend mode="normal" in2="BackgroundImageFix" result="effect1_dropShadow_11_35"/>
<feBlend mode="normal" in="SourceGraphic" in2="effect1_dropShadow_11_35" result="shape"/>
</filter>
</defs>
</svg>
