<svg width="104" height="72" viewBox="0 0 104 72" fill="none" xmlns="http://www.w3.org/2000/svg">
<g filter="url(#filter0_d_11_8)">
<rect x="4" y="4" width="96" height="62" rx="15" fill="#3C7247"/>
<rect x="2" y="2" width="100" height="66" rx="17" stroke="#2B5754" stroke-width="4"/>
</g>
<rect x="4" y="4" width="96" height="55.5417" rx="15" fill="#70B15E"/>
<path opacity="0.5" d="M68.7285 59.542H19C10.7158 59.542 4.00017 52.8261 4 44.542V19C4.00001 10.7157 10.7157 4 19 4H38.3555L68.7285 59.542Z" fill="#A2C758"/>
<g filter="url(#filter1_d_11_8)">
<path d="M42.1408 24.8571H44.2836V27H42.1408V24.8571ZM39.9979 24.8571H42.1408V27H39.9979V24.8571ZM39.9979 27H42.1408V29.1429H39.9979V27ZM42.1408 27H44.2836V29.1429H42.1408V27ZM44.2836 24.8571H46.4265V27H44.2836V24.8571ZM46.4265 24.8571H48.5694V27H46.4265V24.8571ZM48.5694 24.8571H50.7122V27H48.5694V24.8571ZM48.5694 27H50.7122V29.1429H48.5694V27ZM46.4265 27H48.5694V29.1429H46.4265V27ZM48.5694 31.2857H50.7122V33.4286H48.5694V31.2857ZM50.7122 27H52.8551V29.1429H50.7122V27ZM50.7122 29.1429H52.8551V31.2857H50.7122V29.1429ZM50.7122 31.2857H52.8551V33.4286H50.7122V31.2857ZM50.7122 33.4286H52.8551V35.5714H50.7122V33.4286ZM50.7122 35.5714H52.8551V37.7143H50.7122V35.5714ZM50.7122 37.7143H52.8551V39.8571H50.7122V37.7143ZM48.5694 37.7143H50.7122V39.8571H48.5694V37.7143ZM48.5694 35.5714H50.7122V37.7143H48.5694V35.5714ZM48.5694 33.4286H50.7122V35.5714H48.5694V33.4286ZM48.5694 29.1429H50.7122V31.2857H48.5694V29.1429ZM46.4265 37.7143H48.5694V39.8571H46.4265V37.7143ZM48.5694 39.8571H50.7122V42H48.5694V39.8571ZM46.4265 39.8571H48.5694V42H46.4265V39.8571ZM44.2836 39.8571H46.4265V42H44.2836V39.8571ZM42.1408 39.8571H44.2836V42H42.1408V39.8571ZM39.9979 39.8571H42.1408V42H39.9979V39.8571ZM39.9979 37.7143H42.1408V39.8571H39.9979V37.7143ZM42.1408 37.7143H44.2836V39.8571H42.1408V37.7143ZM39.9979 35.5714H42.1408V37.7143H39.9979V35.5714ZM37.8551 37.7143H39.9979V39.8571H37.8551V37.7143ZM37.8551 35.5714H39.9979V37.7143H37.8551V35.5714ZM37.8551 33.4286H39.9979V35.5714H37.8551V33.4286ZM37.8551 31.2857H39.9979V33.4286H37.8551V31.2857ZM37.8551 29.1429H39.9979V31.2857H37.8551V29.1429ZM37.8551 27H39.9979V29.1429H37.8551V27ZM39.9979 29.1429H42.1408V31.2857H39.9979V29.1429ZM39.9979 31.2857H42.1408V33.4286H39.9979V31.2857ZM39.9979 33.4286H42.1408V35.5714H39.9979V33.4286ZM44.2836 37.7143H46.4265V39.8571H44.2836V37.7143ZM44.2836 27H46.4265V29.1429H44.2836V27ZM65.1749 20.5714H67.3178V22.7143H65.1749V20.5714ZM65.1749 22.7143H67.3178V24.8571H65.1749V22.7143ZM63.0321 22.7143H65.1749V24.8571H63.0321V22.7143ZM63.0321 20.5714H65.1749V22.7143H63.0321V20.5714ZM60.8892 20.5714H63.0321V22.7143H60.8892V20.5714ZM60.8892 22.7143H63.0321V24.8571H60.8892V22.7143ZM60.8892 24.8571H63.0321V27H60.8892V24.8571ZM58.7464 22.7143H60.8892V24.8571H58.7464V22.7143ZM58.7464 24.8571H60.8892V27H58.7464V24.8571ZM58.7464 27H60.8892V29.1429H58.7464V27ZM58.7464 29.1429H60.8892V31.2857H58.7464V29.1429ZM60.8892 29.1429H63.0321V31.2857H60.8892V29.1429ZM60.8892 27H63.0321V29.1429H60.8892V27ZM58.7464 39.8571H60.8892V42H58.7464V39.8571ZM58.7464 37.7143H60.8892V39.8571H58.7464V37.7143ZM58.7464 35.5714H60.8892V37.7143H58.7464V35.5714ZM58.7464 33.4286H60.8892V35.5714H58.7464V33.4286ZM58.7464 31.2857H60.8892V33.4286H58.7464V31.2857ZM60.8892 31.2857H63.0321V33.4286H60.8892V31.2857ZM60.8892 33.4286H63.0321V35.5714H60.8892V33.4286ZM60.8892 35.5714H63.0321V37.7143H60.8892V35.5714ZM60.8892 37.7143H63.0321V39.8571H60.8892V37.7143ZM60.8892 39.8571H63.0321V42H60.8892V39.8571ZM56.6035 27H58.7464V29.1429H56.6035V27ZM63.0321 27H65.1749V29.1429H63.0321V27ZM65.1749 27H67.3178V29.1429H65.1749V27ZM56.6035 29.1429H58.7464V31.2857H56.6035V29.1429ZM63.0321 29.1429H65.1749V31.2857H63.0321V29.1429ZM65.1749 29.1429H67.3178V31.2857H65.1749V29.1429Z" fill="white"/>
</g>
<defs>
<filter id="filter0_d_11_8" x="0" y="0" width="104" height="72" filterUnits="userSpaceOnUse" color-interpolation-filters="sRGB">
<feFlood flood-opacity="0" result="BackgroundImageFix"/>
<feColorMatrix in="SourceAlpha" type="matrix" values="0 0 0 0 0 0 0 0 0 0 0 0 0 0 0 0 0 0 127 0" result="hardAlpha"/>
<feOffset dy="2"/>
<feComposite in2="hardAlpha" operator="out"/>
<feColorMatrix type="matrix" values="0 0 0 0 0 0 0 0 0 0 0 0 0 0 0 0 0 0 0.15 0"/>
<feBlend mode="normal" in2="BackgroundImageFix" result="effect1_dropShadow_11_8"/>
<feBlend mode="normal" in="SourceGraphic" in2="effect1_dropShadow_11_8" result="shape"/>
</filter>
<filter id="filter1_d_11_8" x="37.8551" y="20.5714" width="29.4627" height="22.4286" filterUnits="userSpaceOnUse" color-interpolation-filters="sRGB">
<feFlood flood-opacity="0" result="BackgroundImageFix"/>
<feColorMatrix in="SourceAlpha" type="matrix" values="0 0 0 0 0 0 0 0 0 0 0 0 0 0 0 0 0 0 127 0" result="hardAlpha"/>
<feOffset dy="1"/>
<feComposite in2="hardAlpha" operator="out"/>
<feColorMatrix type="matrix" values="0 0 0 0 0 0 0 0 0 0 0 0 0 0 0 0 0 0 0.15 0"/>
<feBlend mode="normal" in2="BackgroundImageFix" result="effect1_dropShadow_11_8"/>
<feBlend mode="normal" in="SourceGraphic" in2="effect1_dropShadow_11_8" result="shape"/>
</filter>
</defs>
</svg>
