<svg width="138" height="72" viewBox="0 0 138 72" fill="none" xmlns="http://www.w3.org/2000/svg">
<g filter="url(#filter0_d_4_87)">
<rect x="4" y="4" width="130" height="62" rx="15" fill="#3C7247"/>
<rect x="2" y="2" width="134" height="66" rx="17" stroke="#2B5754" stroke-width="4"/>
</g>
<rect x="4" y="4" width="130" height="55.5417" rx="15" fill="#70B15E"/>
<path opacity="0.5" d="M91.6523 59.542H19C10.7158 59.542 4.00017 52.8261 4 44.542V19C4.00001 10.7157 10.7157 4 19 4H50.5234L91.6523 59.542Z" fill="#A2C758"/>
<g filter="url(#filter1_d_4_87)">
<path d="M42 20.5714H44.1429V22.7143H42V20.5714ZM44.1429 20.5714H46.2857V22.7143H44.1429V20.5714ZM46.2857 20.5714H48.4286V22.7143H46.2857V20.5714ZM48.4286 20.5714H50.5714V22.7143H48.4286V20.5714ZM50.5714 20.5714H52.7143V22.7143H50.5714V20.5714ZM52.7143 20.5714H54.8571V22.7143H52.7143V20.5714ZM52.7143 22.7143H54.8571V24.8571H52.7143V22.7143ZM50.5714 22.7143H52.7143V24.8571H50.5714V22.7143ZM48.4286 22.7143H50.5714V24.8571H48.4286V22.7143ZM46.2857 22.7143H48.4286V24.8571H46.2857V22.7143ZM44.1429 22.7143H46.2857V24.8571H44.1429V22.7143ZM42 22.7143H44.1429V24.8571H42V22.7143ZM46.2857 24.8571H48.4286V27H46.2857V24.8571ZM46.2857 27H48.4286V29.1429H46.2857V27ZM46.2857 29.1429H48.4286V31.2857H46.2857V29.1429ZM46.2857 31.2857H48.4286V33.4286H46.2857V31.2857ZM46.2857 33.4286H48.4286V35.5714H46.2857V33.4286ZM46.2857 35.5714H48.4286V37.7143H46.2857V35.5714ZM48.4286 33.4286H50.5714V35.5714H48.4286V33.4286ZM48.4286 31.2857H50.5714V33.4286H48.4286V31.2857ZM48.4286 29.1429H50.5714V31.2857H48.4286V29.1429ZM48.4286 27H50.5714V29.1429H48.4286V27ZM48.4286 24.8571H50.5714V27H48.4286V24.8571ZM48.4286 35.5714H50.5714V37.7143H48.4286V35.5714ZM48.4286 37.7143H50.5714V39.8571H48.4286V37.7143ZM48.4286 39.8571H50.5714V42H48.4286V39.8571ZM46.2857 39.8571H48.4286V42H46.2857V39.8571ZM46.2857 37.7143H48.4286V39.8571H46.2857V37.7143ZM73.6 39.8571H71.4571V37.7143H73.6V39.8571ZM73.6 42H71.4571V39.8571H73.6V42ZM71.4571 42H69.3143V39.8571H71.4571V42ZM71.4571 39.8571H69.3143V37.7143H71.4571V39.8571ZM71.4571 37.7143H69.3143V35.5714H71.4571V37.7143ZM71.4571 35.5714H69.3143V33.4286H71.4571V35.5714ZM71.4571 33.4286H69.3143V31.2857H71.4571V33.4286ZM73.6 33.4286H71.4571V31.2857H73.6V33.4286ZM73.6 35.5714H71.4571V33.4286H73.6V35.5714ZM73.6 37.7143H71.4571V35.5714H73.6V37.7143ZM73.6 31.2857H71.4571V29.1429H73.6V31.2857ZM71.4571 31.2857H69.3143V29.1429H71.4571V31.2857ZM71.4571 29.1429H69.3143V27H71.4571V29.1429ZM71.4571 27H69.3143V24.8571H71.4571V27ZM73.6 27H71.4571V24.8571H73.6V27ZM73.6 29.1429H71.4571V27H73.6V29.1429ZM62.8857 27H60.7429V24.8571H62.8857V27ZM60.7429 27H58.6V24.8571H60.7429V27ZM60.7429 29.1429H58.6V27H60.7429V29.1429ZM60.7429 31.2857H58.6V29.1429H60.7429V31.2857ZM60.7429 33.4286H58.6V31.2857H60.7429V33.4286ZM60.7429 35.5714H58.6V33.4286H60.7429V35.5714ZM60.7429 37.7143H58.6V35.5714H60.7429V37.7143ZM60.7429 39.8571H58.6V37.7143H60.7429V39.8571ZM62.8857 35.5714H60.7429V33.4286H62.8857V35.5714ZM62.8857 33.4286H60.7429V31.2857H62.8857V33.4286ZM62.8857 31.2857H60.7429V29.1429H62.8857V31.2857ZM62.8857 29.1429H60.7429V27H62.8857V29.1429ZM62.8857 37.7143H60.7429V35.5714H62.8857V37.7143ZM69.3143 39.8571H67.1714V37.7143H69.3143V39.8571ZM67.1714 39.8571H65.0286V37.7143H67.1714V39.8571ZM65.0286 39.8571H62.8857V37.7143H65.0286V39.8571ZM65.0286 42H62.8857V39.8571H65.0286V42ZM62.8857 42H60.7429V39.8571H62.8857V42ZM62.8857 39.8571H60.7429V37.7143H62.8857V39.8571ZM67.1714 42H65.0286V39.8571H67.1714V42ZM90.2056 24.8571H92.3484V27H90.2056V24.8571ZM88.0627 24.8571H90.2056V27H88.0627V24.8571ZM85.9199 24.8571H88.0627V27H85.9199V24.8571ZM83.777 24.8571H85.9199V27H83.777V24.8571ZM81.6342 24.8571H83.777V27H81.6342V24.8571ZM81.6342 27H83.777V29.1429H81.6342V27ZM83.777 27H85.9199V29.1429H83.777V27ZM85.9199 27H88.0627V29.1429H85.9199V27ZM88.0627 27H90.2056V29.1429H88.0627V27ZM90.2056 27H92.3484V29.1429H90.2056V27ZM79.4913 24.8571H81.6342V27H79.4913V24.8571ZM79.4913 27H81.6342V29.1429H79.4913V27ZM79.4913 29.1429H81.6342V31.2857H79.4913V29.1429ZM77.3484 29.1429H79.4913V31.2857H77.3484V29.1429ZM77.3484 27H79.4913V29.1429H77.3484V27ZM77.3484 31.2857H79.4913V33.4286H77.3484V31.2857ZM77.3484 33.4286H79.4913V35.5714H77.3484V33.4286ZM79.4913 35.5714H81.6342V37.7143H79.4913V35.5714ZM79.4913 33.4286H81.6342V35.5714H79.4913V33.4286ZM79.4913 31.2857H81.6342V33.4286H79.4913V31.2857ZM77.3484 35.5714H79.4913V37.7143H77.3484V35.5714ZM79.4913 37.7143H81.6342V39.8571H79.4913V37.7143ZM81.6342 37.7143H83.777V39.8571H81.6342V37.7143ZM83.777 37.7143H85.9199V39.8571H83.777V37.7143ZM88.0627 37.7143H90.2056V39.8571H88.0627V37.7143ZM90.2056 37.7143H92.3484V39.8571H90.2056V37.7143ZM90.2056 35.5714H92.3484V37.7143H90.2056V35.5714ZM88.0627 35.5714H90.2056V37.7143H88.0627V35.5714ZM85.9199 35.5714H88.0627V37.7143H85.9199V35.5714ZM83.777 35.5714H85.9199V37.7143H83.777V35.5714ZM81.6342 35.5714H83.777V37.7143H81.6342V35.5714ZM88.0627 33.4286H90.2056V35.5714H88.0627V33.4286ZM88.0627 31.2857H90.2056V33.4286H88.0627V31.2857ZM88.0627 29.1429H90.2056V31.2857H88.0627V29.1429ZM90.2056 29.1429H92.3484V31.2857H90.2056V29.1429ZM90.2056 31.2857H92.3484V33.4286H90.2056V31.2857ZM90.2056 33.4286H92.3484V35.5714H90.2056V33.4286ZM88.0627 39.8571H90.2056V42H88.0627V39.8571ZM88.0627 42H90.2056V44.1429H88.0627V42ZM90.2056 42H92.3484V44.1429H90.2056V42ZM90.2056 39.8571H92.3484V42H90.2056V39.8571ZM77.3484 42H79.4913V44.1429H77.3484V42ZM79.4913 42H81.6342V44.1429H79.4913V42ZM79.4913 44.1429H81.6342V46.2857H79.4913V44.1429ZM81.6342 44.1429H83.777V46.2857H81.6342V44.1429ZM81.6342 42H83.777V44.1429H81.6342V42ZM83.777 42H85.9199V44.1429H83.777V42ZM85.9199 42H88.0627V44.1429H85.9199V42ZM88.0627 44.1429H90.2056V46.2857H88.0627V44.1429ZM85.9199 44.1429H88.0627V46.2857H85.9199V44.1429ZM83.777 44.1429H85.9199V46.2857H83.777V44.1429Z" fill="white"/>
</g>
<defs>
<filter id="filter0_d_4_87" x="0" y="0" width="138" height="72" filterUnits="userSpaceOnUse" color-interpolation-filters="sRGB">
<feFlood flood-opacity="0" result="BackgroundImageFix"/>
<feColorMatrix in="SourceAlpha" type="matrix" values="0 0 0 0 0 0 0 0 0 0 0 0 0 0 0 0 0 0 127 0" result="hardAlpha"/>
<feOffset dy="2"/>
<feComposite in2="hardAlpha" operator="out"/>
<feColorMatrix type="matrix" values="0 0 0 0 0 0 0 0 0 0 0 0 0 0 0 0 0 0 0.15 0"/>
<feBlend mode="normal" in2="BackgroundImageFix" result="effect1_dropShadow_4_87"/>
<feBlend mode="normal" in="SourceGraphic" in2="effect1_dropShadow_4_87" result="shape"/>
</filter>
<filter id="filter1_d_4_87" x="42" y="20.5714" width="50.3484" height="26.7143" filterUnits="userSpaceOnUse" color-interpolation-filters="sRGB">
<feFlood flood-opacity="0" result="BackgroundImageFix"/>
<feColorMatrix in="SourceAlpha" type="matrix" values="0 0 0 0 0 0 0 0 0 0 0 0 0 0 0 0 0 0 127 0" result="hardAlpha"/>
<feOffset dy="1"/>
<feComposite in2="hardAlpha" operator="out"/>
<feColorMatrix type="matrix" values="0 0 0 0 0 0 0 0 0 0 0 0 0 0 0 0 0 0 0.15 0"/>
<feBlend mode="normal" in2="BackgroundImageFix" result="effect1_dropShadow_4_87"/>
<feBlend mode="normal" in="SourceGraphic" in2="effect1_dropShadow_4_87" result="shape"/>
</filter>
</defs>
</svg>
