<svg width="215" height="72" viewBox="0 0 215 72" fill="none" xmlns="http://www.w3.org/2000/svg">
<g filter="url(#filter0_d_4_78)">
<rect x="4" y="4" width="207" height="62" rx="15" fill="#3C7247"/>
<rect x="2" y="2" width="211" height="66" rx="17" stroke="#2B5754" stroke-width="4"/>
</g>
<rect x="4" y="4" width="207" height="55.5417" rx="15" fill="#70B15E"/>
<path opacity="0.5" d="M143.57 59.542H19C10.7158 59.542 4.00017 52.8261 4 44.542V19C4.00001 10.7157 10.7157 4 19 4H78.0791L143.57 59.542Z" fill="#A2C758"/>
<g filter="url(#filter1_d_4_78)">
<path d="M59.2857 20.5714H61.4286V22.7143H59.2857V20.5714ZM57.1429 20.5714H59.2857V22.7143H57.1429V20.5714ZM57.1429 22.7143H59.2857V24.8571H57.1429V22.7143ZM59.2857 22.7143H61.4286V24.8571H59.2857V22.7143ZM61.4286 22.7143H63.5714V24.8571H61.4286V22.7143ZM61.4286 20.5714H63.5714V22.7143H61.4286V20.5714ZM63.5714 20.5714H65.7143V22.7143H63.5714V20.5714ZM65.7143 20.5714H67.8571V22.7143H65.7143V20.5714ZM65.7143 22.7143H67.8571V24.8571H65.7143V22.7143ZM63.5714 22.7143H65.7143V24.8571H63.5714V22.7143ZM65.7143 24.8571H67.8571V27H65.7143V24.8571ZM67.8571 22.7143H70V24.8571H67.8571V22.7143ZM67.8571 24.8571H70V27H67.8571V24.8571ZM67.8571 35.5714H70V37.7143H67.8571V35.5714ZM67.8571 37.7143H70V39.8571H67.8571V37.7143ZM65.7143 37.7143H67.8571V39.8571H65.7143V37.7143ZM65.7143 35.5714H67.8571V37.7143H65.7143V35.5714ZM63.5714 37.7143H65.7143V39.8571H63.5714V37.7143ZM65.7143 39.8571H67.8571V42H65.7143V39.8571ZM63.5714 39.8571H65.7143V42H63.5714V39.8571ZM61.4286 39.8571H63.5714V42H61.4286V39.8571ZM61.4286 37.7143H63.5714V39.8571H61.4286V37.7143ZM59.2857 39.8571H61.4286V42H59.2857V39.8571ZM57.1429 39.8571H59.2857V42H57.1429V39.8571ZM57.1429 37.7143H59.2857V39.8571H57.1429V37.7143ZM59.2857 37.7143H61.4286V39.8571H59.2857V37.7143ZM59.2857 35.5714H61.4286V37.7143H59.2857V35.5714ZM57.1429 35.5714H59.2857V37.7143H57.1429V35.5714ZM55 37.7143H57.1429V39.8571H55V37.7143ZM55 35.5714H57.1429V37.7143H55V35.5714ZM55 33.4286H57.1429V35.5714H55V33.4286ZM55 31.2857H57.1429V33.4286H55V31.2857ZM55 29.1429H57.1429V31.2857H55V29.1429ZM55 27H57.1429V29.1429H55V27ZM55 24.8571H57.1429V27H55V24.8571ZM57.1429 24.8571H59.2857V27H57.1429V24.8571ZM55 22.7143H57.1429V24.8571H55V22.7143ZM59.2857 24.8571H61.4286V27H59.2857V24.8571ZM57.1429 27H59.2857V29.1429H57.1429V27ZM57.1429 29.1429H59.2857V31.2857H57.1429V29.1429ZM57.1429 31.2857H59.2857V33.4286H57.1429V31.2857ZM57.1429 33.4286H59.2857V35.5714H57.1429V33.4286ZM73.7484 27H75.8913V29.1429H73.7484V27ZM73.7484 24.8571H75.8913V27H73.7484V24.8571ZM75.8913 24.8571H78.0342V27H75.8913V24.8571ZM75.8913 27H78.0342V29.1429H75.8913V27ZM75.8913 29.1429H78.0342V31.2857H75.8913V29.1429ZM75.8913 31.2857H78.0342V33.4286H75.8913V31.2857ZM75.8913 33.4286H78.0342V35.5714H75.8913V33.4286ZM73.7484 33.4286H75.8913V35.5714H73.7484V33.4286ZM73.7484 31.2857H75.8913V33.4286H73.7484V31.2857ZM73.7484 29.1429H75.8913V31.2857H73.7484V29.1429ZM73.7484 35.5714H75.8913V37.7143H73.7484V35.5714ZM75.8913 35.5714H78.0342V37.7143H75.8913V35.5714ZM75.8913 37.7143H78.0342V39.8571H75.8913V37.7143ZM75.8913 39.8571H78.0342V42H75.8913V39.8571ZM73.7484 39.8571H75.8913V42H73.7484V39.8571ZM73.7484 37.7143H75.8913V39.8571H73.7484V37.7143ZM78.0342 27H80.177V29.1429H78.0342V27ZM80.177 27H82.3199V29.1429H80.177V27ZM82.3199 27H84.4627V29.1429H82.3199V27ZM82.3199 24.8571H84.4627V27H82.3199V24.8571ZM80.177 24.8571H82.3199V27H80.177V24.8571ZM78.0342 29.1429H80.177V31.2857H78.0342V29.1429ZM84.4627 27H86.6056V29.1429H84.4627V27ZM82.3199 29.1429H84.4627V31.2857H82.3199V29.1429ZM94.6342 24.8571H96.777V27H94.6342V24.8571ZM92.4913 24.8571H94.6342V27H92.4913V24.8571ZM92.4913 27H94.6342V29.1429H92.4913V27ZM94.6342 27H96.777V29.1429H94.6342V27ZM96.777 24.8571H98.9199V27H96.777V24.8571ZM98.9199 24.8571H101.063V27H98.9199V24.8571ZM101.063 24.8571H103.206V27H101.063V24.8571ZM101.063 27H103.206V29.1429H101.063V27ZM98.9199 27H101.063V29.1429H98.9199V27ZM103.206 27H105.348V29.1429H103.206V27ZM103.206 29.1429H105.348V31.2857H103.206V29.1429ZM103.206 37.7143H105.348V39.8571H103.206V37.7143ZM101.063 37.7143H103.206V39.8571H101.063V37.7143ZM101.063 29.1429H103.206V31.2857H101.063V29.1429ZM98.9199 37.7143H101.063V39.8571H98.9199V37.7143ZM101.063 39.8571H103.206V42H101.063V39.8571ZM98.9199 39.8571H101.063V42H98.9199V39.8571ZM96.777 39.8571H98.9199V42H96.777V39.8571ZM94.6342 39.8571H96.777V42H94.6342V39.8571ZM92.4913 39.8571H94.6342V42H92.4913V39.8571ZM92.4913 37.7143H94.6342V39.8571H92.4913V37.7143ZM94.6342 37.7143H96.777V39.8571H94.6342V37.7143ZM92.4913 35.5714H94.6342V37.7143H92.4913V35.5714ZM90.3484 37.7143H92.4913V39.8571H90.3484V37.7143ZM90.3484 35.5714H92.4913V37.7143H90.3484V35.5714ZM90.3484 33.4286H92.4913V35.5714H90.3484V33.4286ZM90.3484 31.2857H92.4913V33.4286H90.3484V31.2857ZM90.3484 29.1429H92.4913V31.2857H90.3484V29.1429ZM90.3484 27H92.4913V29.1429H90.3484V27ZM92.4913 29.1429H94.6342V31.2857H92.4913V29.1429ZM92.4913 31.2857H94.6342V33.4286H92.4913V31.2857ZM92.4913 33.4286H94.6342V35.5714H92.4913V33.4286ZM96.777 37.7143H98.9199V39.8571H96.777V37.7143ZM96.777 27H98.9199V29.1429H96.777V27ZM101.063 31.2857H103.206V33.4286H101.063V31.2857ZM103.206 31.2857H105.348V33.4286H103.206V31.2857ZM94.6342 33.4286H96.777V35.5714H94.6342V33.4286ZM96.777 33.4286H98.9199V35.5714H96.777V33.4286ZM98.9199 33.4286H101.063V35.5714H98.9199V33.4286ZM101.063 33.4286H103.206V35.5714H101.063V33.4286ZM103.206 33.4286H105.348V35.5714H103.206V33.4286ZM98.9199 31.2857H101.063V33.4286H98.9199V31.2857ZM96.777 31.2857H98.9199V33.4286H96.777V31.2857ZM94.6342 31.2857H96.777V33.4286H94.6342V31.2857ZM121.954 42H119.811V39.8571H121.954V42ZM121.954 39.8571H119.811V37.7143H121.954V39.8571ZM119.811 39.8571H117.668V37.7143H119.811V39.8571ZM117.668 42H115.525V39.8571H117.668V42ZM115.525 42H113.383V39.8571H115.525V42ZM113.383 42H111.24V39.8571H113.383V42ZM113.383 39.8571H111.24V37.7143H113.383V39.8571ZM115.525 39.8571H113.383V37.7143H115.525V39.8571ZM111.24 39.8571H109.097V37.7143H111.24V39.8571ZM111.24 37.7143H109.097V35.5714H111.24V37.7143ZM111.24 29.1429H109.097V27H111.24V29.1429ZM113.383 29.1429H111.24V27H113.383V29.1429ZM113.383 37.7143H111.24V35.5714H113.383V37.7143ZM115.525 29.1429H113.383V27H115.525V29.1429ZM113.383 27H111.24V24.8571H113.383V27ZM115.525 27H113.383V24.8571H115.525V27ZM117.668 27H115.525V24.8571H117.668V27ZM119.811 27H117.668V24.8571H119.811V27ZM121.954 27H119.811V24.8571H121.954V27ZM121.954 29.1429H119.811V27H121.954V29.1429ZM119.811 29.1429H117.668V27H119.811V29.1429ZM121.954 31.2857H119.811V29.1429H121.954V31.2857ZM124.097 29.1429H121.954V27H124.097V29.1429ZM124.097 31.2857H121.954V29.1429H124.097V31.2857ZM124.097 33.4286H121.954V31.2857H124.097V33.4286ZM124.097 35.5714H121.954V33.4286H124.097V35.5714ZM124.097 37.7143H121.954V35.5714H124.097V37.7143ZM124.097 39.8571H121.954V37.7143H124.097V39.8571ZM121.954 37.7143H119.811V35.5714H121.954V37.7143ZM121.954 35.5714H119.811V33.4286H121.954V35.5714ZM121.954 33.4286H119.811V31.2857H121.954V33.4286ZM117.668 29.1429H115.525V27H117.668V29.1429ZM117.668 39.8571H115.525V37.7143H117.668V39.8571ZM121.954 39.8571H124.097V42H121.954V39.8571ZM117.668 31.2857H119.811V33.4286H117.668V31.2857ZM115.525 31.2857H117.668V33.4286H115.525V31.2857ZM113.383 31.2857H115.525V33.4286H113.383V31.2857ZM111.24 31.2857H113.383V33.4286H111.24V31.2857ZM109.097 33.4286H111.24V35.5714H109.097V33.4286ZM111.24 33.4286H113.383V35.5714H111.24V33.4286ZM117.668 33.4286H119.811V35.5714H117.668V33.4286ZM115.525 33.4286H117.668V35.5714H115.525V33.4286ZM113.383 33.4286H115.525V35.5714H113.383V33.4286ZM136.417 37.7143H138.56V39.8571H136.417V37.7143ZM136.417 39.8571H138.56V42H136.417V39.8571ZM134.274 39.8571H136.417V42H134.274V39.8571ZM134.274 37.7143H136.417V39.8571H134.274V37.7143ZM132.131 39.8571H134.274V42H132.131V39.8571ZM132.131 37.7143H134.274V39.8571H132.131V37.7143ZM129.988 37.7143H132.131V39.8571H129.988V37.7143ZM129.988 35.5714H132.131V37.7143H129.988V35.5714ZM129.988 33.4286H132.131V35.5714H129.988V33.4286ZM129.988 31.2857H132.131V33.4286H129.988V31.2857ZM129.988 29.1429H132.131V31.2857H129.988V29.1429ZM129.988 27H132.131V29.1429H129.988V27ZM132.131 33.4286H134.274V35.5714H132.131V33.4286ZM132.131 35.5714H134.274V37.7143H132.131V35.5714ZM132.131 31.2857H134.274V33.4286H132.131V31.2857ZM132.131 29.1429H134.274V31.2857H132.131V29.1429ZM132.131 20.5714H134.274V22.7143H132.131V20.5714ZM132.131 22.7143H134.274V24.8571H132.131V22.7143ZM132.131 24.8571H134.274V27H132.131V24.8571ZM132.131 27H134.274V29.1429H132.131V27ZM129.988 24.8571H132.131V27H129.988V24.8571ZM127.845 27H129.988V29.1429H127.845V27ZM134.274 27H136.417V29.1429H134.274V27ZM136.417 27H138.56V29.1429H136.417V27ZM129.988 22.7143H132.131V24.8571H129.988V22.7143ZM127.845 29.1429H129.988V31.2857H127.845V29.1429ZM134.274 29.1429H136.417V31.2857H134.274V29.1429ZM136.417 29.1429H138.56V31.2857H136.417V29.1429ZM146.583 24.8571H148.725V27H146.583V24.8571ZM144.44 24.8571H146.583V27H144.44V24.8571ZM144.44 27H146.583V29.1429H144.44V27ZM146.583 27H148.725V29.1429H146.583V27ZM148.725 24.8571H150.868V27H148.725V24.8571ZM150.868 24.8571H153.011V27H150.868V24.8571ZM153.011 24.8571H155.154V27H153.011V24.8571ZM153.011 27H155.154V29.1429H153.011V27ZM150.868 27H153.011V29.1429H150.868V27ZM155.154 27H157.297V29.1429H155.154V27ZM155.154 29.1429H157.297V31.2857H155.154V29.1429ZM155.154 37.7143H157.297V39.8571H155.154V37.7143ZM153.011 37.7143H155.154V39.8571H153.011V37.7143ZM153.011 29.1429H155.154V31.2857H153.011V29.1429ZM150.868 37.7143H153.011V39.8571H150.868V37.7143ZM153.011 39.8571H155.154V42H153.011V39.8571ZM150.868 39.8571H153.011V42H150.868V39.8571ZM148.725 39.8571H150.868V42H148.725V39.8571ZM146.583 39.8571H148.725V42H146.583V39.8571ZM144.44 39.8571H146.583V42H144.44V39.8571ZM144.44 37.7143H146.583V39.8571H144.44V37.7143ZM146.583 37.7143H148.725V39.8571H146.583V37.7143ZM144.44 35.5714H146.583V37.7143H144.44V35.5714ZM142.297 37.7143H144.44V39.8571H142.297V37.7143ZM142.297 35.5714H144.44V37.7143H142.297V35.5714ZM142.297 33.4286H144.44V35.5714H142.297V33.4286ZM142.297 31.2857H144.44V33.4286H142.297V31.2857ZM142.297 29.1429H144.44V31.2857H142.297V29.1429ZM142.297 27H144.44V29.1429H142.297V27ZM144.44 29.1429H146.583V31.2857H144.44V29.1429ZM144.44 31.2857H146.583V33.4286H144.44V31.2857ZM144.44 33.4286H146.583V35.5714H144.44V33.4286ZM148.725 37.7143H150.868V39.8571H148.725V37.7143ZM148.725 27H150.868V29.1429H148.725V27ZM153.011 31.2857H155.154V33.4286H153.011V31.2857ZM155.154 31.2857H157.297V33.4286H155.154V31.2857ZM146.583 33.4286H148.725V35.5714H146.583V33.4286ZM148.725 33.4286H150.868V35.5714H148.725V33.4286ZM150.868 33.4286H153.011V35.5714H150.868V33.4286ZM153.011 33.4286H155.154V35.5714H153.011V33.4286ZM155.154 33.4286H157.297V35.5714H155.154V33.4286ZM150.868 31.2857H153.011V33.4286H150.868V31.2857ZM148.725 31.2857H150.868V33.4286H148.725V31.2857ZM146.583 31.2857H148.725V33.4286H146.583V31.2857Z" fill="white"/>
</g>
<defs>
<filter id="filter0_d_4_78" x="0" y="0" width="215" height="72" filterUnits="userSpaceOnUse" color-interpolation-filters="sRGB">
<feFlood flood-opacity="0" result="BackgroundImageFix"/>
<feColorMatrix in="SourceAlpha" type="matrix" values="0 0 0 0 0 0 0 0 0 0 0 0 0 0 0 0 0 0 127 0" result="hardAlpha"/>
<feOffset dy="2"/>
<feComposite in2="hardAlpha" operator="out"/>
<feColorMatrix type="matrix" values="0 0 0 0 0 0 0 0 0 0 0 0 0 0 0 0 0 0 0.15 0"/>
<feBlend mode="normal" in2="BackgroundImageFix" result="effect1_dropShadow_4_78"/>
<feBlend mode="normal" in="SourceGraphic" in2="effect1_dropShadow_4_78" result="shape"/>
</filter>
<filter id="filter1_d_4_78" x="55" y="20.5714" width="102.297" height="22.4286" filterUnits="userSpaceOnUse" color-interpolation-filters="sRGB">
<feFlood flood-opacity="0" result="BackgroundImageFix"/>
<feColorMatrix in="SourceAlpha" type="matrix" values="0 0 0 0 0 0 0 0 0 0 0 0 0 0 0 0 0 0 127 0" result="hardAlpha"/>
<feOffset dy="1"/>
<feComposite in2="hardAlpha" operator="out"/>
<feColorMatrix type="matrix" values="0 0 0 0 0 0 0 0 0 0 0 0 0 0 0 0 0 0 0.15 0"/>
<feBlend mode="normal" in2="BackgroundImageFix" result="effect1_dropShadow_4_78"/>
<feBlend mode="normal" in="SourceGraphic" in2="effect1_dropShadow_4_78" result="shape"/>
</filter>
</defs>
</svg>
