<svg width="215" height="72" viewBox="0 0 215 72" fill="none" xmlns="http://www.w3.org/2000/svg">
<g filter="url(#filter0_d_4_87)">
<rect x="4" y="4" width="207" height="62" rx="15" fill="#3C7247"/>
<rect x="2" y="2" width="211" height="66" rx="17" stroke="#2B5754" stroke-width="4"/>
</g>
<rect x="4" y="4" width="207" height="55.5417" rx="15" fill="#70B15E"/>
<path opacity="0.5" d="M143.57 59.542H19C10.7158 59.542 4.00017 52.8261 4 44.542V19C4.00001 10.7157 10.7157 4 19 4H78.0791L143.57 59.542Z" fill="#A2C758"/>
<g filter="url(#filter1_d_4_87)">
<path d="M87.7143 20.5714H89.8571V22.7143H87.7143V20.5714ZM85.5714 20.5714H87.7143V22.7143H85.5714V20.5714ZM85.5714 22.7143H87.7143V24.8571H85.5714V22.7143ZM85.5714 24.8571H87.7143V27H85.5714V24.8571ZM85.5714 27H87.7143V29.1429H85.5714V27ZM85.5714 29.1429H87.7143V31.2857H85.5714V29.1429ZM87.7143 29.1429H89.8571V31.2857H87.7143V29.1429ZM87.7143 27H89.8571V29.1429H87.7143V27ZM87.7143 24.8571H89.8571V27H87.7143V24.8571ZM87.7143 22.7143H89.8571V24.8571H87.7143V22.7143ZM87.7143 31.2857H89.8571V33.4286H87.7143V31.2857ZM87.7143 33.4286H89.8571V35.5714H87.7143V33.4286ZM87.7143 35.5714H89.8571V37.7143H87.7143V35.5714ZM87.7143 37.7143H89.8571V39.8571H87.7143V37.7143ZM85.5714 37.7143H87.7143V39.8571H85.5714V37.7143ZM85.5714 39.8571H87.7143V42H85.5714V39.8571ZM83.4286 39.8571H85.5714V42H83.4286V39.8571ZM83.4286 37.7143H85.5714V39.8571H83.4286V37.7143ZM85.5714 35.5714H87.7143V37.7143H85.5714V35.5714ZM85.5714 33.4286H87.7143V35.5714H85.5714V33.4286ZM85.5714 31.2857H87.7143V33.4286H85.5714V31.2857ZM81.2857 39.8571H83.4286V42H81.2857V39.8571ZM79.1429 39.8571H81.2857V42H79.1429V39.8571ZM77 37.7143H79.1429V39.8571H77V37.7143ZM77 35.5714H79.1429V37.7143H77V35.5714ZM79.1429 35.5714H81.2857V37.7143H79.1429V35.5714ZM79.1429 37.7143H81.2857V39.8571H79.1429V37.7143ZM81.2857 37.7143H83.4286V39.8571H81.2857V37.7143ZM83.4286 35.5714H85.5714V37.7143H83.4286V35.5714ZM97.8857 24.8571H100.029V27H97.8857V24.8571ZM95.7429 24.8571H97.8857V27H95.7429V24.8571ZM95.7429 27H97.8857V29.1429H95.7429V27ZM97.8857 27H100.029V29.1429H97.8857V27ZM100.029 24.8571H102.171V27H100.029V24.8571ZM102.171 24.8571H104.314V27H102.171V24.8571ZM104.314 24.8571H106.457V27H104.314V24.8571ZM104.314 27H106.457V29.1429H104.314V27ZM102.171 27H104.314V29.1429H102.171V27ZM104.314 31.2857H106.457V33.4286H104.314V31.2857ZM106.457 27H108.6V29.1429H106.457V27ZM106.457 29.1429H108.6V31.2857H106.457V29.1429ZM106.457 31.2857H108.6V33.4286H106.457V31.2857ZM106.457 33.4286H108.6V35.5714H106.457V33.4286ZM106.457 35.5714H108.6V37.7143H106.457V35.5714ZM106.457 37.7143H108.6V39.8571H106.457V37.7143ZM104.314 37.7143H106.457V39.8571H104.314V37.7143ZM104.314 35.5714H106.457V37.7143H104.314V35.5714ZM104.314 33.4286H106.457V35.5714H104.314V33.4286ZM104.314 29.1429H106.457V31.2857H104.314V29.1429ZM102.171 37.7143H104.314V39.8571H102.171V37.7143ZM104.314 39.8571H106.457V42H104.314V39.8571ZM102.171 39.8571H104.314V42H102.171V39.8571ZM100.029 39.8571H102.171V42H100.029V39.8571ZM97.8857 39.8571H100.029V42H97.8857V39.8571ZM95.7429 39.8571H97.8857V42H95.7429V39.8571ZM95.7429 37.7143H97.8857V39.8571H95.7429V37.7143ZM97.8857 37.7143H100.029V39.8571H97.8857V37.7143ZM95.7429 35.5714H97.8857V37.7143H95.7429V35.5714ZM93.6 37.7143H95.7429V39.8571H93.6V37.7143ZM93.6 35.5714H95.7429V37.7143H93.6V35.5714ZM93.6 33.4286H95.7429V35.5714H93.6V33.4286ZM93.6 31.2857H95.7429V33.4286H93.6V31.2857ZM93.6 29.1429H95.7429V31.2857H93.6V29.1429ZM93.6 27H95.7429V29.1429H93.6V27ZM95.7429 29.1429H97.8857V31.2857H95.7429V29.1429ZM95.7429 31.2857H97.8857V33.4286H95.7429V31.2857ZM95.7429 33.4286H97.8857V35.5714H95.7429V33.4286ZM100.029 37.7143H102.171V39.8571H100.029V37.7143ZM100.029 27H102.171V29.1429H100.029V27ZM112.348 20.5714H116.634V24.8571H112.348V20.5714ZM112.348 27H116.634V42H112.348V27ZM120.394 27H122.537V29.1429H120.394V27ZM120.394 24.8571H122.537V27H120.394V24.8571ZM122.537 24.8571H124.679V27H122.537V24.8571ZM122.537 27H124.679V29.1429H122.537V27ZM122.537 29.1429H124.679V31.2857H122.537V29.1429ZM122.537 31.2857H124.679V33.4286H122.537V31.2857ZM122.537 33.4286H124.679V35.5714H122.537V33.4286ZM120.394 33.4286H122.537V35.5714H120.394V33.4286ZM120.394 31.2857H122.537V33.4286H120.394V31.2857ZM120.394 29.1429H122.537V31.2857H120.394V29.1429ZM120.394 35.5714H122.537V37.7143H120.394V35.5714ZM122.537 35.5714H124.679V37.7143H122.537V35.5714ZM122.537 37.7143H124.679V39.8571H122.537V37.7143ZM122.537 39.8571H124.679V42H122.537V39.8571ZM120.394 39.8571H122.537V42H120.394V39.8571ZM120.394 37.7143H122.537V39.8571H120.394V37.7143ZM131.108 39.8571H133.251V42H131.108V39.8571ZM133.251 39.8571H135.394V42H133.251V39.8571ZM133.251 37.7143H135.394V39.8571H133.251V37.7143ZM133.251 35.5714H135.394V37.7143H133.251V35.5714ZM133.251 33.4286H135.394V35.5714H133.251V33.4286ZM133.251 31.2857H135.394V33.4286H133.251V31.2857ZM133.251 29.1429H135.394V31.2857H133.251V29.1429ZM133.251 27H135.394V29.1429H133.251V27ZM131.108 31.2857H133.251V33.4286H131.108V31.2857ZM131.108 33.4286H133.251V35.5714H131.108V33.4286ZM131.108 35.5714H133.251V37.7143H131.108V35.5714ZM131.108 37.7143H133.251V39.8571H131.108V37.7143ZM131.108 29.1429H133.251V31.2857H131.108V29.1429ZM124.679 27H126.822V29.1429H124.679V27ZM126.822 27H128.965V29.1429H126.822V27ZM128.965 27H131.108V29.1429H128.965V27ZM128.965 24.8571H131.108V27H128.965V24.8571ZM131.108 24.8571H133.251V27H131.108V24.8571ZM131.108 27H133.251V29.1429H131.108V27ZM126.822 24.8571H128.965V27H126.822V24.8571Z" fill="white"/>
</g>
<defs>
<filter id="filter0_d_4_87" x="0" y="0" width="215" height="72" filterUnits="userSpaceOnUse" color-interpolation-filters="sRGB">
<feFlood flood-opacity="0" result="BackgroundImageFix"/>
<feColorMatrix in="SourceAlpha" type="matrix" values="0 0 0 0 0 0 0 0 0 0 0 0 0 0 0 0 0 0 127 0" result="hardAlpha"/>
<feOffset dy="2"/>
<feComposite in2="hardAlpha" operator="out"/>
<feColorMatrix type="matrix" values="0 0 0 0 0 0 0 0 0 0 0 0 0 0 0 0 0 0 0.15 0"/>
<feBlend mode="normal" in2="BackgroundImageFix" result="effect1_dropShadow_4_87"/>
<feBlend mode="normal" in="SourceGraphic" in2="effect1_dropShadow_4_87" result="shape"/>
</filter>
<filter id="filter1_d_4_87" x="77" y="20.5714" width="58.3937" height="22.4286" filterUnits="userSpaceOnUse" color-interpolation-filters="sRGB">
<feFlood flood-opacity="0" result="BackgroundImageFix"/>
<feColorMatrix in="SourceAlpha" type="matrix" values="0 0 0 0 0 0 0 0 0 0 0 0 0 0 0 0 0 0 127 0" result="hardAlpha"/>
<feOffset dy="1"/>
<feComposite in2="hardAlpha" operator="out"/>
<feColorMatrix type="matrix" values="0 0 0 0 0 0 0 0 0 0 0 0 0 0 0 0 0 0 0.15 0"/>
<feBlend mode="normal" in2="BackgroundImageFix" result="effect1_dropShadow_4_87"/>
<feBlend mode="normal" in="SourceGraphic" in2="effect1_dropShadow_4_87" result="shape"/>
</filter>
</defs>
</svg>
